<?xml version="1.0" encoding="UTF-8"?>
<svg width="467px" height="97px" viewBox="0 0 467 97" version="1.1" xmlns="http://www.w3.org/2000/svg" xmlns:xlink="http://www.w3.org/1999/xlink">
    <!-- Generator: Sketch 42 (36781) - http://www.bohemiancoding.com/sketch -->
    <title>I am Eirik</title>
    <desc>Created with Sketch.</desc>
    <defs></defs>
    <g id="Page-1" stroke="none" stroke-width="1" fill="none" fill-rule="evenodd">
        <g id="iameirik" transform="translate(-489.000000, -266.000000)" fill="#FFFFFF">
            <g id="Intro">
                <g id="I-am-Eirik" transform="translate(489.000000, 266.000000)">
                    <path d="M389.507841,52.7896188 C388.534305,53.5626384 387.465561,54.2157522 386.497059,54.9949208 C385.370095,55.9012424 384.272679,56.8510463 383.224508,57.8478463 C382.30569,58.7212267 381.223375,59.1000502 380.515548,58.6535875 C379.717546,58.1504659 379.243254,56.6645992 379.48817,55.6317835 C379.654074,54.9323325 379.606141,54.1628267 379.864408,53.5079561 C380.374377,52.2155639 381.029018,50.9800502 381.626972,49.7223561 C381.756762,49.4493835 381.899685,49.18256 382.196911,48.5962071 C381.620187,48.7888031 381.366298,48.84656 381.136265,48.9552659 C380.373501,49.3160816 379.631092,49.7208188 378.859574,50.0605522 C377.779229,50.5362227 376.647012,50.9034071 375.595121,51.4331012 C373.385842,52.5458541 371.198451,53.7053835 369.032509,54.900709 C367.468679,55.7637678 366.017349,56.8574149 364.398583,57.5867325 C362.910045,58.2569757 361.774983,59.2577286 360.632041,60.3577443 C359.84367,61.1164894 358.831832,61.6387169 357.939497,62.2931482 C357.613818,62.5323012 355.54571,64.22416 354.512423,63.8918933 C353.568216,63.5881757 352.925393,60.1803012 353.068535,59.3293208 C353.305133,57.9251482 353.797592,56.5648973 354.170328,55.1829051 C354.26116,54.8458071 354.307123,54.4966306 354.43735,53.8237522 C352.582642,54.8629365 350.978103,55.7459796 349.389322,56.6566933 C347.648645,57.654811 345.922633,58.6784031 344.190711,59.6914541 C344.036845,59.7812737 343.877069,59.8638463 343.733271,59.9679404 C341.420029,61.6395953 339.161505,63.396458 336.769907,64.946011 C335.87407,65.5264345 334.674441,65.85936 333.60307,65.8863718 C332.245636,65.920411 331.842695,64.6078149 331.525333,63.547109 C331.272538,62.7033757 331.267941,61.7737757 331.233579,60.8790933 C331.211473,60.3074541 331.013176,60.0814776 330.514808,60.361258 C328.683738,61.3896816 326.884404,62.4749835 325.046329,63.490011 C324.501342,63.7910933 323.000985,64.4861522 322.803126,64.6005678 C320.123714,66.1534149 317.465313,67.7490855 314.72396,69.1853208 C311.755858,70.7405835 308.687513,72.1021522 305.700369,73.6224973 C304.015941,74.4798463 300.422526,76.5459169 300.257935,76.6203639 C299.576201,76.9277601 295.850561,78.7889194 292.39502,79.9970703 C288.939478,81.2052212 285.766418,81.7562733 285.039434,81.8127718 C282.536869,82.0075639 279.88591,82.3220424 277.772497,80.5719875 C277.059854,79.9819012 276.759345,78.7806463 276.476346,77.7987796 C275.410228,74.1027796 277.140618,71.2224031 279.436569,68.6338855 C280.720463,67.1864502 282.256715,65.9621365 283.694913,64.6545914 C285.639139,62.8865286 287.55141,61.0778384 289.567207,59.3947639 C291.042175,58.1632031 292.676919,57.1255561 294.210982,55.9627325 C295.067422,55.314011 295.829967,54.5398933 296.693192,53.9014933 C300.091594,51.38896 303.487588,48.8718149 306.935236,46.4282384 C309.151737,44.8573835 311.456443,43.4117051 313.721752,41.9100267 C313.710371,41.7653051 313.699209,41.6205835 313.688046,41.475862 C313.117013,41.3904345 312.528908,41.3634227 311.981732,41.1991561 C311.622128,41.0908894 311.132515,40.8545914 311.023955,40.5572424 C309.842054,37.3184659 309.809443,34.6243169 312.638781,32.1904031 C314.994265,30.1640816 317.446709,28.233509 319.981229,26.4377757 C322.659766,24.5399247 325.468531,22.823909 328.25322,21.080662 C330.953206,19.3903404 333.661071,17.7070463 336.43022,16.1353129 C338.147697,15.1604737 344.360773,11.7659953 345.733528,11.0199875 C348.558052,9.48536784 351.429414,8.03639529 354.295522,6.57995608 C355.063758,6.18971294 355.859352,5.82077176 356.682524,5.57986196 C358.867945,4.93992471 359.890508,5.69493647 360.771462,7.82030118 C361.20592,8.86914824 361.3182,9.58616784 360.451911,10.2384031 C360.080926,10.5179639 359.490194,10.4951247 359.006709,10.6356737 C358.357321,10.8245365 357.67138,10.9532267 357.076928,11.2571639 C354.813151,12.4147169 352.587238,13.6471561 350.332435,14.8231561 C348.790711,15.6275796 347.183108,16.3125365 345.677279,17.1775718 C341.702372,19.4606149 337.769926,21.8181051 333.814937,24.1354071 C331.660814,25.3977129 329.472109,26.6013835 327.341843,27.9023404 C325.977842,28.7353129 324.680378,29.6802855 323.374597,30.6052737 C321.298173,32.0766463 319.237945,33.570858 317.176623,35.0630933 C317.021444,35.1755325 316.911571,35.3507796 316.671032,35.61936 C318.055825,35.3347482 319.245386,34.9783247 320.456835,34.8707169 C321.80639,34.7510306 323.202565,34.6923953 324.530452,34.9069522 C326.220132,35.1801443 326.337227,36.790309 326.693111,38.1018071 C327.062126,39.4629365 325.963616,40.1294463 325.158391,40.7151404 C323.395827,41.997211 321.480711,43.0671404 319.643293,44.2475325 C316.497905,46.2683639 313.31531,48.2364894 310.241274,50.3620737 C307.88776,51.9895875 305.698836,53.8547169 303.398727,55.5628267 C300.662408,57.5950776 297.882753,59.5684737 295.131989,61.5816188 C294.876129,61.7687247 294.722701,62.0924267 294.474721,62.2949051 C293.097369,63.4179796 291.690689,64.5056973 290.323186,65.6408502 C289.311567,66.4806306 288.3168,67.3450071 287.363619,68.2506698 C285.678973,69.851611 283.963686,71.4297129 282.396135,73.1417757 C281.556548,74.0586384 280.998428,75.234858 280.313364,76.2940267 C280.40704,76.4216188 280.500717,76.549211 280.594175,76.6765835 C281.76732,76.5931325 282.946376,76.5562384 284.111861,76.4110776 C285.067449,76.2920502 286.031136,76.1231718 286.94886,75.8379012 C289.093134,75.171611 291.231498,74.4761129 293.334844,73.6907953 C295.395947,72.9212894 297.439322,72.0894149 299.436296,71.1668424 C301.121817,70.3883325 302.729421,69.4407247 304.371606,68.568662 C304.435735,68.5344031 310.171455,65.5380737 310.908173,65.0986384 C312.601792,64.0888816 314.367639,63.2003482 316.112037,62.2777757 C317.317575,61.6402541 318.548503,61.0501678 319.7466,60.3992502 C321.730004,59.3218541 323.698963,58.2176659 325.668578,57.1147953 C328.290209,55.6473757 330.924534,54.2010384 333.518368,52.6855247 C334.91104,51.8718776 336.241773,50.9488659 337.579728,50.0451796 C338.454116,49.4544345 339.978329,49.6395639 340.628594,50.4758306 C340.825577,50.7294776 340.995202,51.0057443 341.166796,51.2784973 C342.181042,52.8945914 342.011636,53.798058 340.399436,55.4446776 C340.072882,55.778262 339.757489,56.1237051 339.446912,56.472662 C339.421085,56.5018698 339.472082,56.6004737 339.506007,56.7456345 C340.498291,56.1248444 345.921773,52.3871882 351.19751,49.3945312 C354.245714,47.6654401 358.075586,45.996861 360.451911,45.9154541 C361.551362,45.8777897 363.008377,46.8360696 363.28418,47.9978027 C363.559982,49.1595358 362.622,50.9729833 362.200029,51.66896 C361.941762,52.0949992 361.623962,52.4848031 361.271143,52.978262 C361.515621,53.0461208 361.72136,53.1763482 361.82204,53.1194698 C362.455451,52.7617286 363.06216,52.3558933 363.684409,51.9781678 C365.283039,51.0072816 366.80594,49.8602698 368.50328,49.1149208 C371.571844,47.7671875 374.341212,45.8443012 377.439542,44.5841914 C379.239533,43.8520188 381.099494,43.2683012 382.932316,42.6178227 C383.639049,42.366811 384.340091,42.0973522 385.054484,41.8698384 C385.842418,41.6190463 386.416296,41.8094463 387.257853,42.188709 C388.98102,42.9650227 388.989556,44.4985443 389.771361,45.9154541 C391.012138,45.0556894 392.212205,44.13136 393.500258,43.3528502 C395.502922,42.1425914 397.549142,41.0006306 399.612215,39.8960031 C400.252193,39.5534149 401.987398,40.116709 402.409161,40.653211 C403.63593,42.2135247 403.593688,44.2312816 402.364949,45.8331012 C400.794335,47.8805051 399.592079,50.144662 398.627517,52.5350933 C398.544565,52.7406463 398.616574,53.0094463 398.616574,53.48336 C399.74113,52.9143561 400.734583,52.4228737 401.717093,51.9105286 C402.381583,51.5642071 404.330844,50.3392345 405.018535,49.8749835 C407.908719,47.9224502 410.85012,46.0463404 413.769195,44.1372894 C415.352504,43.102058 416.937271,42.0620535 418.505771,41.0113914 C420.170898,39.8960031 423.422477,36.9181208 423.940325,36.482858 C424.712281,35.8339169 427.888967,33.1957678 428.610583,32.4040816 C429.228673,31.7257129 433.975755,27.4229365 434.384605,26.9433129 C434.744865,26.5201286 435.235354,26.2115796 435.63917,25.8219953 C437.166448,24.3504031 438.623907,22.7990933 440.22582,21.4157835 C441.009595,20.7389522 446.449402,16.6083482 446.855625,16.1159875 C447.471964,15.3691012 462.924876,4.12342275 463.282073,3.88954039 C463.719595,3.60317176 464.490019,3.11432471 464.659644,3.25750902 C465.297651,3.79598745 466.385437,3.97145412 466.41783,5.11253647 C466.426366,5.41142275 466.525952,5.74083451 466.681788,5.99623843 C467.174903,6.8046149 466.890152,7.96831686 466.120385,8.5797051 C464.119252,10.1694463 462.117463,11.7618227 460.184399,13.4325992 C458.123077,15.2142776 456.103997,17.0493208 454.132412,18.9304816 C451.840619,21.1175561 449.579906,23.3410855 447.380695,25.6217129 C445.39751,27.6779012 443.511941,29.8287404 441.593979,31.9477365 C441.337682,32.230811 441.144419,32.5712031 441.07263,33.0960659 C441.607111,32.8696502 442.146408,32.6539953 442.674324,32.4139639 C443.560311,32.0105443 444.423537,31.5524424 445.325939,31.1918463 C445.95563,30.9403953 447.472402,32.0669835 447.649468,32.7998149 C447.746209,33.199062 448.02505,33.5609757 448.084583,33.960662 C448.177165,34.5861051 448.407636,35.3870149 448.131202,35.8347953 C447.342174,37.1135718 446.419416,38.3053835 445.105537,39.1737129 C442.796016,40.6999875 440.553031,42.3290384 438.306107,43.9484267 C436.651008,45.1413365 435.009261,46.3557678 433.408005,47.619611 C432.254338,48.5301051 431.658311,49.2588136 431.76709,49.3945312 C432.687878,50.5432999 433.921694,53.523109 433.408005,54.900709 C433.015789,55.9521914 431.391063,56.295658 430.36084,55.9627325 C428.451414,55.3458541 427.149611,53.4526149 427.068848,51.4331012 C426.389036,51.8002855 423.714013,53.0423875 423.141448,53.2626541 C422.867859,53.3678463 422.401446,53.359062 422.196146,53.1897443 C420.180349,51.5288502 420.564685,48.4378698 422.002883,46.9366306 C424.099006,44.7482384 426.112395,42.4781522 428.111777,40.1992816 C428.64604,39.5900894 429.00061,38.82256 429.257783,38.0282384 C428.297598,38.8142149 427.333911,39.5957992 426.378542,40.3872659 C424.672228,41.8013208 422.9878,43.2421678 421.262882,44.6327247 C419.543436,46.0193286 417.839092,47.4347012 416.032316,48.6992031 C413.427319,50.5223875 410.730179,52.2122698 408.08294,53.975062 C405.951799,55.3941678 403.871872,56.8947482 401.697394,58.2427012 C400.724515,58.8459639 399.610902,59.3260267 398.497508,59.5702306 C397.049023,59.8884424 395.37357,58.6059325 395.101295,56.8525835 C394.80976,54.9742776 394.857911,53.0417286 394.782182,51.1317992 C394.749351,50.2970698 394.77671,49.4601443 394.77671,48.4795953 C392.983285,49.9509678 391.264496,51.3942306 389.507841,52.7896188 Z" id="Fill-1"></path>
                    <path d="M135.768045,70.8905318 C136.224338,71.1190968 138.051257,70.7076971 139.680176,69.8261719 C140.489653,69.3881054 143.923304,66.8522591 147.081543,64.1276855 C148.98444,62.4860799 151.776485,59.8116849 153.595703,57.0021973 C155.414921,54.1927096 155.441148,52.8036122 155.596177,52.1977318 C155.81461,51.3445553 155.334189,50.6964925 154.399393,50.8835984 C152.889625,51.1853396 150.101074,52.1977318 147.820801,53.2209473 C146.659175,53.7421976 141.257316,57.7694024 139.30718,60.4049161 C138.026569,62.1356455 136.797611,63.9285239 135.771109,65.8169318 C135.095018,67.0612298 134.819679,68.5246965 134.479335,69.5460925 C134.44738,71.0099984 135.059082,70.5354004 135.768045,70.8905318 Z M201.306618,56.7014494 C200.114868,57.0622651 199.110691,57.2438808 198.217042,57.6628925 C196.427776,58.5011357 194.623846,59.3518965 192.965464,60.4161161 C191.221067,61.535018 185.74055,65.9111435 184.675526,66.8468925 C184.178313,67.2837761 180.113192,71.9880143 178.802246,69.9372141 C177.491301,67.8864139 179.200324,61.3162444 179.595105,60.5742337 C179.905682,59.9905161 179.977253,59.2792063 180.259596,58.26352 C179.39068,58.8705161 178.701238,59.2392376 178.151654,59.7575122 C176.657863,61.165418 172.587092,64.5447435 172.111267,64.9185161 C170.304273,66.3378416 168.487867,67.7494808 166.614554,69.0781082 C165.050944,70.1873475 163.463914,71.2926337 161.77489,72.1857788 C160.120667,73.0602573 158.250857,73.5271435 156.613049,72.2031278 C155.856195,71.5913004 155.255177,70.6175592 154.918992,69.6859827 C154.242463,67.812069 153.929288,66.6511146 153.352783,64.6032715 C152.91745,64.9777029 152.475741,65.3682729 152.117669,65.7569788 C150.294915,67.7343278 148.482887,68.9896063 146.510864,70.8004925 C145.121474,72.0761945 143.367884,72.9664847 141.730295,73.9507671 C140.864006,74.4714573 139.907104,74.8463278 138.975372,75.2506259 C136.813151,76.1883514 134.509758,75.8863906 132.714583,74.3056533 C129.980234,71.8974337 129.555543,68.16432 130.797852,64.9185161 C131.545075,62.9668612 132.699043,61.0641788 133.727953,59.2460455 C134.376825,58.0994776 136.856488,55.157755 139.935059,52.6486816 C143.013629,50.1396082 146.893943,47.9135271 147.954533,47.4252141 C149.287017,46.8116298 150.710988,46.3836141 152.117669,45.9501082 C154.25866,45.2899671 156.484996,45.8890573 157.873291,47.4252141 C158.458592,48.0728495 159.752671,49.9538383 159.895508,52.6486816 C160.038344,55.343525 159.017991,59.6276882 158.864132,60.5386573 C158.573253,62.2599435 158.458565,64.0135122 158.317175,65.7569788 C158.27734,66.2469239 158.414791,66.7509239 158.486143,67.3831749 C158.919944,67.3067514 159.302311,67.3295906 159.589688,67.1747671 C162.929432,65.3772769 165.951158,63.1085082 168.923419,60.7681475 C171.024356,59.1138416 173.166879,57.5104847 175.225137,55.804571 C177.047234,54.2941082 183.982583,48.5994573 185.728731,47.3920533 C186.454287,46.8902494 187.537039,47.1417004 188.115733,47.8859514 C188.684796,48.6174651 189.355634,49.3230651 189.700792,50.1571357 C189.932139,50.7166965 189.880704,51.5887592 189.59661,52.132069 C188.675822,53.8931043 186.482083,57.809371 186.39935,58.329622 C187.518654,57.6035984 188.420619,56.9913318 189.34863,56.421669 C192.662985,54.3878808 196.004262,52.3940612 199.817642,51.4251514 C202.465537,50.7524925 204.601932,52.0143592 205.703288,54.517669 C206.766342,56.9346729 206.290736,59.1669867 205.28043,61.4985631 C206.345235,61.3351749 212.03915,56.0803984 214.243833,54.4399278 C214.966201,53.9023422 218.5827,51.4167729 222.078857,50.6123047 C225.575015,49.8078365 227.323666,50.7853261 228.05631,51.6403671 C230.066417,53.986218 229.96508,56.6197553 229.694775,59.3938416 C229.569581,60.6803043 229.663038,61.9926808 229.727167,63.2901239 C229.739862,63.5464063 232.277446,66.1195514 232.584302,66.4013082 C233.219027,66.9830494 233.089893,67.7305945 232.477275,68.0755984 C231.734866,68.4930729 230.896373,68.864869 229.920868,68.3498886 C229.517379,68.136757 228.523408,67.8103988 227.613525,66.8468925 C226.703643,65.8833863 225.982026,64.4108854 225.784654,63.8709867 C224.981399,61.673371 224.570798,59.3760533 225.041588,57.0023122 C225.165688,56.3759906 225.13614,55.7191435 225.193703,54.8174337 C224.789451,54.9317136 222.211302,55.4802106 219.927002,56.7014494 C217.642702,57.9226882 215.247588,60.0427338 214.719219,60.4644298 C214.147311,60.9205553 203.373193,70.9225945 202.987543,71.1035514 C201.727068,71.6958337 200.86822,71.1694337 200.228462,69.9372141 C198.334576,66.2897475 199.447313,62.7975435 200.549326,59.2748141 C200.792272,58.4985004 201.009392,57.7140612 201.306618,56.7014494 L136.606934,69.2641602" id="Fill-4"></path>
                    <path d="M53.811056,77.7020204 C54.7583274,77.5012988 55.4400245,77.4028561 56.6644703,77.1718871 C57.888916,76.940918 60.006958,75.9728282 60.5971349,75.9728282 C61.3266301,75.9728282 61.7582135,76.480447 62.1644897,77.1718871 C62.570766,77.8633271 62.2759399,78.6251831 62.2759399,78.6251831 C62.2759399,78.6251831 61.5792671,79.3247364 60.302002,79.838501 C59.0247368,80.3522655 53.8633656,81.9811005 52.8847961,82.1508361 C51.2993948,82.4256517 38.3008459,83.0127737 27.9833984,85.621582 C17.665951,88.2303904 10.8889071,92.6380936 10.4992164,92.8567184 C8.38799188,94.0406243 6.30128082,95.268891 4.21413203,96.4956204 C2.58289041,97.4546478 1.50626657,97.1469773 0.661207689,95.4751027 C0.468163935,95.0929851 -0.00393966846,94.7514949 4.10539278e-13,94.395291 C0.00590950268,93.8724047 0.169624614,93.1332047 0.538202485,92.8716518 C1.8566782,91.9356831 7.89349095,88.0872644 12.9443359,85.920166 C17.9951809,83.7530676 26.3026733,81.0362549 26.3026733,81.0362549 C26.3026733,81.0362549 28.8648564,77.4108204 30.0309983,76.5167969 C30.2587552,76.3420905 40.1492635,65.1320967 50.0727539,52.5727341 C59.9962443,40.0133715 68.1754253,28.3619136 68.2974357,28.154538 C68.4432035,27.9066008 70.2358512,25.1363016 71.1875,24.184082 C72.3790308,22.9918311 72.6783471,21.3480125 73.2307761,19.881691 C73.2988448,19.7009537 74.5302101,19.7969224 75.1161264,20.0321224 C75.5444559,20.2040753 75.8160741,20.8014086 76.1262136,21.23184 C77.5005013,23.1386949 75.2818113,26.9952282 74.9364337,27.4603576 C73.9811631,28.7474306 65.0662495,41.3571016 55.9946289,53.1088867 C46.9230084,64.8606718 34.6121761,79.3025224 34.6134893,79.4039812 C35.9531955,79.28144 52.4895161,77.9820204 53.811056,77.7020204 Z" id="Fill-6"></path>
                    <path d="M73.3004426,12.4168251 C74.886378,11.9165584 89.3331423,8.04355451 89.8085289,7.92694275 C90.1567518,7.84195451 101.29113,4.92051137 102.2117,4.61679373 C104.313513,3.92305255 115.937723,1.37450353 116.53721,1.2504251 C118.150723,0.915742745 119.771896,0.61993098 121.38519,0.286127059 C122.215804,0.114174118 122.983383,0.267021176 123.577835,0.837342745 C124.079048,1.31806431 123.8514,2.76188038 123.819468,2.82764863 C123.577835,3.32531738 122.363206,3.48754379 121.656152,3.65886431 C120.618042,3.91040039 102.263353,8.67975843 101.469291,8.84885647 C100.788604,8.99401725 93.5468365,11.1637427 90.5879267,12.0079153 C87.745237,12.8189271 84.9152418,13.6745192 82.0699257,14.475429 C81.4518355,14.6491388 66.696245,18.3247153 65.1457666,18.6497349 C63.141132,19.0702839 61.1474409,19.5420016 59.1428063,19.9629898 C58.2583507,20.148778 57.3629516,20.3512565 56.4658015,20.3894682 C55.2455987,20.4417349 53.8874512,20.7233887 53.302063,20.9685059 C52.7166748,21.213623 51.7139893,21.1291504 51.4298096,20.6464844 C51.2130984,20.2784104 51.0577311,19.877782 50.8287926,19.5872408 C49.7407875,18.2076643 50.223178,16.6752408 51.9294922,16.4024878 C54.1834203,16.042331 56.4614241,15.830629 58.7116314,15.4526839 C59.8339992,15.2638212 72.5586906,12.6507075 73.3004426,12.4168251 Z" id="Fill-9"></path>
                    <path d="M353.387626,39.2176345 C353.024739,39.8279247 351.087735,39.3577443 350.918548,38.5473914 C350.597465,37.0075012 350.4007,35.422811 350.361742,33.8517365 C350.347734,33.2849286 350.936058,32.7031875 351.200015,32.2193914 C354.259168,33.1338384 355.926742,34.9240816 356.046245,38.0297757 C354.969184,38.1026855 354.003527,38.1813051 353.387626,39.2176345 Z" id="Fill-12"></path>
                    <path d="M411.543392,30.3298855 C410.676446,30.9638933 409.26495,30.12016 408.982389,28.9419639 C408.872516,28.4845208 408.792409,28.0143404 408.626067,27.5775404 C408.176945,26.3982463 408.809262,25.3770698 409.16821,24.3717051 C409.43939,23.61296 410.797481,23.6138384 411.586947,24.4331953 C412.475123,25.3555482 413.307707,26.3989051 413.166754,28.0745129 C413.59574,29.2997051 412.344896,29.7437522 411.543392,30.3298855 Z" id="Fill-14"></path>
                </g>
            </g>
        </g>
    </g>
</svg>