<?xml version="1.0" encoding="UTF-8"?>
<svg width="220px" height="61px" viewBox="0 0 220 61" version="1.1" xmlns="http://www.w3.org/2000/svg" xmlns:xlink="http://www.w3.org/1999/xlink">
    <!-- Generator: Sketch 46.2 (44496) - http://www.bohemiancoding.com/sketch -->
    <title>aftenposten</title>
    <desc>Created with Sketch.</desc>
    <defs></defs>
    <g id="Page-1" stroke="none" stroke-width="1" fill="none" fill-rule="evenodd">
        <g id="aftenposten" transform="translate(-1.000000, -1.000000)" fill="#000000">
            <g id="g2452" transform="translate(110.871053, 31.168100) scale(-1, 1) rotate(-180.000000) translate(-110.871053, -31.168100) translate(0.371053, 0.668100)">
                <path d="M219.8306,18.5508 C219.8306,18.5508 218.2964,17.4552 217.673,17.598 C216.9569,17.7621 216.4238,18.4371 216.4238,19.3968 L216.356,21.9339 L216.35,37.0734 C216.35,39.954 213.398,41.8935 210.9476,43.1427 L204.9722,38.1927 C204.5048,40.4331 202.6379,41.9274 200.5226,43.0044 L194.1524,37.7823 L194.6363,37.2282 C194.6363,37.2282 195.7367,38.0532 196.5218,37.929 C197.2427,37.8141 197.4968,37.5117 197.4968,36.552 L197.5649,34.0137 L197.5649,13.6548 L205.0931,13.6548 L205.0859,36.279 C205.1024,36.5649 205.1633,36.8976 205.3286,37.1895 C205.6085,37.6875 206.1839,37.9581 206.9681,37.9734 C207.8339,37.9887 208.7573,37.5879 208.7609,36.552 L208.829,34.0137 L208.8359,20.0613 L208.8359,18.873 C208.8359,15.996 210.95,14.1903 213.398,12.9444 L220.3145,17.9976 L219.8306,18.5508" id="path2458"></path>
                <path d="M127.6871,37.0734 C127.6871,39.954 124.7327,41.8935 122.2859,43.1427 L116.3189,38.202 C115.8371,40.4367 113.9738,41.9286 111.8621,43.0044 L105.4919,37.7823 L105.9746,37.2282 C105.9746,37.2282 107.075,38.0532 107.8589,37.929 C108.581,37.8141 108.8363,37.5117 108.8363,36.552 L108.9173,34.0137 L108.9101,4.6488 C108.9101,2.7564 107.9879,1.3899 106.6673,0.279 C106.6673,0.279 110.7698,0.069 114.3194,3.7665 C114.3194,3.7665 116.2919,1.7484 119.2343,2.3556 C119.2343,2.3556 116.7347,3.1722 116.4407,7.4484 L116.4407,17.0685 L122.2859,12.8766 C124.7327,14.1234 127.6871,16.0641 127.6871,18.9411 L127.6871,37.0734 Z M118.3073,17.304 C117.5198,17.3202 116.9189,17.6133 116.6282,18.1044 C116.4992,18.3246 116.4569,18.627 116.4407,18.8565 L116.4407,34.0956 L116.444,34.0956 L116.444,36.1065 C116.444,36.1113 116.444,36.1125 116.444,36.1161 C116.444,36.4335 116.4698,36.8391 116.6633,37.1895 C116.9444,37.6875 117.5198,37.9581 118.3073,37.9734 C119.1698,37.9887 120.0968,37.5879 120.1004,36.552 L120.1577,34.0137 L120.1673,34.0137 L120.1673,20.3319 L120.1319,18.921 C120.1004,17.652 119.1698,17.2875 118.3073,17.304 L118.3073,17.304 Z" id="path2460"></path>
                <path d="M107.8145,18.5508 C107.8145,18.5508 106.2806,17.4552 105.6548,17.598 C104.9423,17.7621 104.4077,18.4371 104.4077,19.3968 L104.3387,21.9339 L104.3339,37.0734 C104.3339,39.954 101.3786,41.8935 98.9315,43.1427 L92.9573,38.1927 C92.4875,40.4331 90.6218,41.9274 88.5077,43.0044 L82.1375,37.7823 L82.6202,37.2282 C82.6202,37.2282 83.7218,38.0532 84.5048,37.929 C85.2278,37.8141 85.4819,37.5117 85.4819,36.552 L85.55,34.0137 L85.55,13.6548 L93.0746,13.6548 L93.071,36.279 C93.0851,36.5649 93.1472,36.8976 93.3101,37.1895 C93.5915,37.6875 94.1657,37.9581 94.9532,37.9734 C95.8169,37.9887 96.7415,37.5879 96.7448,36.552 L96.8141,34.0137 L96.8198,20.0613 L96.8198,18.873 C96.8198,15.996 98.9339,14.1903 101.381,12.9444 L108.2984,17.9976 L107.8145,18.5508" id="path2462"></path>
                <path d="M64.1375,18.5508 C64.1375,18.5508 62.6036,17.4552 61.9778,17.598 C61.2653,17.7621 60.731,18.4371 60.731,19.3968 L60.6782,21.6468 C60.6782,21.6468 60.671,31.1331 60.6734,37.7097 L62.7806,37.7097 L62.7806,40.1298 L60.6734,40.1298 C60.6758,42.2718 60.677,43.7484 60.6815,43.8564 C60.7064,44.4762 60.7319,45.9996 61.25,47.3169 C62.0306,49.3101 64.0355,50.8407 64.0355,50.8407 L63.2903,51.5871 C62.0774,50.4516 56.2895,46.3101 54.6113,44.9661 C53.429,44.0214 53.1944,42.8472 53.1581,42.2331 L53.1536,42.2331 L53.1512,40.1298 L51.1544,40.1298 L51.1544,37.7097 L53.15,37.7097 L53.1419,18.873 C53.1419,15.996 55.2569,14.1903 57.7052,12.9444 L64.6214,17.9976 L64.1375,18.5508" id="path2464"></path>
                <path d="M61.7939,52.8903 L59.9984,51.7278 C58.6766,50.8815 57.4181,51.177 56.1056,51.8214 C54.8081,52.4556 53.8685,53.9802 53.8685,53.9802 C53.8685,53.9802 42.4742,46.4964 41.9915,46.1919 C41.4992,45.8802 41.0843,45.5262 40.7222,44.7399 L40.7246,44.7411 C40.3766,43.9359 40.2923,42.8355 40.2734,42.2331 L40.2641,42.2331 L40.2641,40.1298 L38.381,40.1298 L38.381,37.7097 L40.2641,37.7097 L40.2734,4.8036 L41.873,4.8036 L41.873,9.8931 C41.927,11.9694 42.7661,13.5552 44.9351,14.352 L46.5419,14.931 C47.3504,15.231 47.7968,15.9669 47.7968,16.7133 C47.7968,17.9718 47.7911,37.7097 47.7911,37.7097 L49.5911,37.7097 L49.5911,40.1298 L47.7911,40.1298 L47.8016,48.3093 L47.804,48.3117 C47.804,48.3117 48.8024,47.7198 50.6177,46.5093 C52.4327,45.3 54.6665,46.7262 55.4564,47.2032 C56.2802,47.7012 62.3915,52.3056 62.3915,52.3056 L61.7939,52.8903" id="path2466"></path>
                <path d="M176.0867,18.5508 C176.0867,18.5508 174.5528,17.4552 173.9306,17.598 C173.2169,17.7621 172.6835,18.4371 172.6835,19.3968 L172.6286,21.6468 L172.6286,37.7097 L174.731,37.7097 L174.731,40.1298 L172.6286,40.1298 C172.6286,40.1298 172.6157,43.4331 172.6319,43.8564 C172.6577,44.4762 172.6835,45.9996 173.2004,47.3169 C173.9819,49.3101 175.9871,50.8407 175.9871,50.8407 L175.2419,51.5871 C174.0266,50.4516 168.2399,46.3101 166.5605,44.9661 C165.3827,44.0214 165.1439,42.8472 165.1109,42.2331 L165.1052,42.2331 L165.1052,40.1298 L163.106,40.1298 L163.106,37.7097 L165.1052,37.7097 L165.0923,18.873 C165.0923,15.996 167.2064,14.1903 169.6544,12.9444 L176.5718,17.9976 L176.0867,18.5508" id="path2468"></path>
                <path d="M173.7431,52.8903 L171.9512,51.7278 C170.627,50.8815 169.3706,51.177 168.0524,51.8214 C166.7609,52.4556 165.8189,53.9802 165.8189,53.9802 C165.8189,53.9802 154.4258,46.4964 153.944,46.1919 C153.4508,45.8802 153.0335,45.5262 152.6714,44.7399 L152.675,44.7411 C152.3258,43.9359 152.2427,42.8355 152.2262,42.2331 L152.2169,42.2331 L152.2262,4.8036 L153.8246,4.8036 L153.8246,9.8931 C153.8798,11.9694 154.7165,13.5552 156.8867,14.352 L158.4944,14.931 C159.302,15.231 159.7472,15.9669 159.7472,16.7133 C159.7472,17.9718 159.7544,48.3093 159.7544,48.3093 L159.7544,48.3117 C159.7544,48.3117 160.7516,47.7198 162.569,46.5093 C164.3843,45.3 166.619,46.7262 167.4065,47.2032 C168.2306,47.7012 174.3431,52.3056 174.3431,52.3056 L173.7431,52.8903" id="path2470"></path>
                <path d="M80.9069,19.7379 C78.9887,18.4887 76.6181,17.9073 74.4593,18.8214 C72.7319,19.5423 72.3875,20.4048 72.3875,22.371 L72.3875,22.9935 L72.3839,22.9935 L72.3839,24.3081 C72.4181,24.8439 73.2371,24.8766 73.5512,24.9246 C75.4976,25.2375 77.3129,26.1585 78.8738,27.75 C80.4677,29.3778 82.6823,34.4577 80.2823,39.4806 C79.7306,40.6383 77.7593,42.2706 76.4774,43.0161 C76.4774,43.0161 66.5048,37.9722 66.2585,37.8165 C65.873,37.5726 65.5415,37.296 65.2778,36.7956 C64.9379,36.2496 64.8617,35.475 64.8617,35.094 L64.8689,35.0919 L64.8593,23.256 L64.8359,23.256 C64.8359,22.8315 64.8431,22.4286 64.8593,22.044 L64.8593,21.6762 L64.8794,21.6762 C65.0948,18.1536 66.2,16.2315 69.9887,14.5488 L72.9698,12.9669 L81.3689,19.1085 L80.9069,19.7379 Z M75.3347,31.9464 C75.3689,30.021 74.3399,27.7956 73.6427,26.9976 C73.0157,26.2815 72.8222,26.2395 72.3839,26.1129 L72.3839,35.496 L72.3806,35.496 L72.3806,38.7681 C72.9794,38.6508 75.2573,36.4629 75.3347,31.9464 L75.3347,31.9464 Z" id="path2472"></path>
                <path d="M193.1504,19.7379 C191.2319,18.4887 188.8589,17.9073 186.7016,18.8214 C184.9742,19.5423 184.6319,20.4048 184.6319,22.371 L184.6319,22.9935 L184.6286,22.9935 L184.6286,24.3081 C184.6649,24.8439 185.4815,24.8766 185.7944,24.9246 C187.7387,25.2375 189.5564,26.1585 191.1161,27.75 C192.7121,29.3778 194.9234,34.4577 192.5246,39.4806 C191.9714,40.6383 190.0016,42.2706 188.7206,43.0161 C188.7206,43.0161 178.748,37.9722 178.4996,37.8165 C178.1153,37.5726 177.7823,37.296 177.521,36.7956 C177.1823,36.2496 177.1052,35.475 177.1052,35.094 L177.1145,35.0919 L177.1052,23.256 L177.0782,23.256 C177.0782,22.8315 177.0887,22.4286 177.1052,22.044 L177.1052,21.6762 L177.1202,21.6762 C177.3371,18.1536 178.4411,16.2315 182.2286,14.5488 L185.2133,12.9669 L193.6085,19.1085 L193.1504,19.7379 Z M187.5806,31.9464 C187.6121,30.021 186.5819,27.7956 185.8847,26.9976 C185.2577,26.2815 185.0645,26.2395 184.6286,26.1129 L184.6286,35.496 L184.6226,35.496 L184.6226,38.7681 C185.2226,38.6508 187.502,36.4629 187.5806,31.9464 L187.5806,31.9464 Z" id="path2474"></path>
                <path d="M149.5298,20.9694 L149.5298,35.3871 L149.5238,35.3871 L149.5262,35.6661 C149.5262,37.581 148.5512,38.5065 147.0665,39.3117 C146.5226,39.6036 143.2391,41.8851 143.0036,43.0488 C143.0036,43.0488 135.1694,40.1016 134.3012,39.7359 C133.4774,39.3903 131.456,38.5065 130.946,37.4238 C130.4222,36.3177 130.4129,35.7423 130.4294,35.2815 L130.4294,21.402 L130.4222,20.2581 C130.4222,18.3468 131.3948,17.4177 132.8831,16.6161 C133.4222,16.3218 136.7387,13.9524 136.9742,12.7899 C136.9742,12.7899 144.7181,15.873 145.6448,16.1895 C146.4911,16.4766 148.4903,17.4177 149.0036,18.5016 C149.6492,19.8774 149.5298,20.4294 149.5298,20.9694 Z M137.9564,23.6814 L137.9564,35.3931 L137.9528,35.3931 L137.9528,38.8173 C139.0028,38.8173 141.9641,36.5694 142.0028,31.7823 L142.0028,19.9008 L142.0085,19.9032 L142.0085,17.1105 C141.1052,17.1105 138.1823,19.2093 137.9564,23.6814 L137.9564,23.6814 Z" id="path2476"></path>
                <path d="M19.73282,45.8331 C19.73282,45.8331 19.81133,49.6734 19.80665,51.2286 C19.7996,53.0274 21.4601,54.3048 23.4323,54.3048 C25.0004,54.3048 26.7992,53.2887 26.9435,51.3738 C27.0476,49.9815 27.0302,46.3839 27.0302,46.3839 L27.0302,39.2532 L19.71524,39.2532 L19.71524,44.7714 L19.73282,45.8331 Z M8.69024,23.7714 C8.69024,24.7899 9.04298,25.3254 9.46016,25.5996 C9.5246,25.6605 9.59726,25.7004 9.6746,25.7226 C10.22189,25.9689 10.79375,25.8609 10.79375,25.8609 C10.82189,25.4931 10.81133,24.6468 10.81133,24.6468 C10.81133,22.7907 9.92423,22.3839 8.70899,22.4355 C8.675,22.8516 8.69024,23.7714 8.69024,23.7714 Z M27.0395,29.4327 C27.0653,27.8439 26.8286,25.4673 24.8141,23.1939 C22.9613,21.0984 20.5988,20.3427 18.50117,19.7355 C16.04024,19.0278 12.15782,19.1706 10.0379,20.5944 C9.4625,20.979 9.11327,21.3468 8.91173,21.702 C9.575,21.4665 10.55351,21.4665 11.22617,21.4665 C15.06407,21.4665 19.72109,22.8585 19.72109,27.4629 L19.72109,34.9512 L19.71524,34.9488 L19.71524,35.769 L27.0464,35.769 L27.0464,29.3976 C27.0419,29.4198 27.0395,29.4327 27.0395,29.4327 Z M27.0698,19.8423 C27.0698,16.4319 29.606,14.2968 32.5028,12.819 L41.2073,18.9282 C41.2073,18.9282 40.2782,20.8008 40.2782,20.5653 C40.2782,20.2161 40.2524,19.7673 40.0367,19.3863 C39.7274,18.8379 38.921,18.5367 38.0552,18.5238 C37.106,18.5052 36.0875,18.9444 36.0863,20.0883 L36.0194,22.8774 L36.0185,22.8774 L36.0185,39.594 L36.0206,39.594 C36.0206,39.594 36.0206,45.4125 36.0206,49.9113 C36.0206,54.4101 38.321,54.6129 38.321,54.6129 L38.321,55.1073 C33.2129,55.2762 32.402,60.6681 32.402,60.6681 L31.9448,60.6681 C30.5948,58.5351 26.7194,57.0819 22.8641,56.3379 C16.01681,55.0173 10.76093,55.1952 10.76093,48.3984 L10.76093,48.3855 L10.74452,48.3855 L10.74452,28.0149 L10.75274,28.0149 C10.75742,27.6855 10.76093,27.3831 10.76444,27.1008 C10.32617,27.7242 9.02189,28.8972 5.56484,28.4214 C2.11835,27.9504 1.14923,25.3605 0.90314,24.5823 C0.45665,23.1681 0.37109,18.954 2.09726,16.6806 C3.64298,14.6427 6.28556,12.1944 12.33593,12.9282 C18.3875,13.6617 22.2698,17.2524 24.1169,19.1895 C25.5734,20.7198 26.4794,21.8415 27.0464,22.6452 L27.0698,19.8423 L27.0698,19.8423 Z" id="path2478"></path>
            </g>
        </g>
    </g>
</svg>