<?xml version="1.0" encoding="UTF-8"?>
<svg width="808px" height="123px" viewBox="0 0 808 123" version="1.1" xmlns="http://www.w3.org/2000/svg" xmlns:xlink="http://www.w3.org/1999/xlink">
    <!-- Generator: Sketch 46.2 (44496) - http://www.bohemiancoding.com/sketch -->
    <title>aftonbladet</title>
    <desc>Created with Sketch.</desc>
    <defs></defs>
    <g id="Page-1" stroke="none" stroke-width="1" fill="none" fill-rule="evenodd">
        <g id="aftonbladet" transform="translate(3.000000, 3.000000)">
            <path d="M285.15201,92.931 L285.15201,17.572001" id="line3" stroke="#000000" stroke-width="15.0733995"></path>
            <polyline id="polyline5" fill="#000000" fill-rule="nonzero" points="77.987 1.337 77.987 15.398 84.559 23.33 84.548 88.621 79.033 88.589 79.033 101.217 79.854 102.18 81.566 102.75 92.586 115.649 123.911 115.649 123.911 103.053 117.611 95.707 117.611 78.125 134.408 78.125 134.408 63.167 122.076 48.725 117.892 48.715 117.877 36.135 130.209 50.564 144.904 50.564 144.904 15.139 132.572 1.337"></polyline>
            <g id="g7" transform="translate(77.000000, 1.000000)" stroke-width="7.40369987" stroke="#000000">
                <polygon id="polygon9" points="0.987 0.337 0.987 14.398 7.559 22.33 7.548 87.621 2.033 87.589 2.033 100.217 2.854 101.18 4.566 101.75 15.586 114.649 46.911 114.649 46.911 102.053 40.611 94.707 40.611 77.125 57.408 77.125 57.408 62.167 45.076 47.725 40.892 47.715 40.877 35.135 53.209 49.564 67.904 49.564 67.904 14.139 55.572 0.337"></polygon>
            </g>
            <polyline id="polyline11" fill="#C4C4C4" fill-rule="nonzero" points="84.548 15.398 84.548 88.621 79.033 88.621 79.033 101.217 111.579 101.217 111.579 88.621 105.278 88.621 105.278 63.692 122.076 63.692 122.076 48.725 105.278 48.725 105.278 15.398 117.877 15.398 117.877 36.135 132.572 36.135 132.572 1.337 77.987 1.337 77.987 15.398"></polyline>
            <polygon id="polygon13" stroke="#000000" stroke-width="4.41580009" points="84.548 15.398 84.548 88.621 79.033 88.621 79.033 101.217 111.579 101.217 111.579 88.621 105.278 88.621 105.278 63.692 122.076 63.692 122.076 48.725 105.278 48.725 105.278 15.398 117.877 15.398 117.877 36.135 132.572 36.135 132.572 1.337 77.987 1.337 77.987 15.398"></polygon>
            <polyline id="polyline15" fill="#000000" fill-rule="nonzero" points="141.261 1.309 141.231 36.135 153.568 50.564 164.878 50.539 164.878 50.507 164.852 88.621 157.761 88.621 157.761 101.217 170.1 115.649 205.791 115.649 205.791 103.053 197.964 93.909 197.915 93.909 197.889 38.866 207.89 50.564 222.585 50.564 222.585 15.139 210.257 1.309"></polyline>
            <g id="g17" transform="translate(141.000000, 1.000000)" stroke-width="7.40369987" stroke="#000000">
                <polygon id="polygon19" points="0.261 0.309 0.231 35.135 12.568 49.564 23.878 49.539 23.878 49.507 23.852 87.621 16.761 87.621 16.761 100.217 29.1 114.649 64.791 114.649 64.791 102.053 56.964 92.909 56.915 92.909 56.889 37.866 66.89 49.564 81.585 49.564 81.585 14.139 69.257 0.309"></polygon>
            </g>
            <polyline id="polyline21" fill="#C4C4C4" fill-rule="nonzero" points="212.512 1.337 212.512 36.135 197.813 36.135 197.813 15.398 187.846 15.398 187.846 88.621 195.714 88.621 195.714 101.217 160.023 101.217 160.023 88.621 167.112 88.621 167.112 15.398 157.196 15.398 157.196 36.135 143.493 36.135 143.493 1.337"></polyline>
            <polygon id="polygon23" stroke="#000000" stroke-width="4.41580009" points="212.512 1.337 212.512 36.135 197.813 36.135 197.813 15.398 187.846 15.398 187.846 88.621 195.714 88.621 195.714 101.217 160.023 101.217 160.023 88.621 167.112 88.621 167.112 15.398 157.196 15.398 157.196 36.135 143.493 36.135 143.493 1.337"></polygon>
            <path d="M276.85,3.842 C275.267,2.393 273.152,1.515 270.841,1.515 L231.612,1.515 C226.682,1.515 222.69,4.88 222.69,9.807 L222.569,92.39 C222.569,94.854 223.567,97.093 225.182,98.704 L237.52,113.135 C239.136,114.75 241.364,115.754 243.829,115.601 L283.168,115.601 C288.098,115.754 292.095,111.756 292.095,106.832 L292.095,24.222 C292.095,21.607 290.97,19.257 289.182,17.63" id="path25" fill="#000000" fill-rule="nonzero"></path>
            <path d="M276.85,3.842 C275.267,2.393 273.152,1.515 270.841,1.515 L231.612,1.515 C226.682,1.515 222.69,4.88 222.69,9.807 L222.569,92.39 C222.569,94.854 223.567,97.093 225.182,98.704 L237.52,113.135 C239.136,114.75 241.364,115.754 243.829,115.601 L283.168,115.601 C288.098,115.754 292.095,111.756 292.095,106.832 L292.095,24.222 C292.095,21.607 290.97,19.257 289.182,17.63 L276.85,3.842 Z" id="path27" stroke="#000000" stroke-width="7.40369987"></path>
            <path d="M270.836,101.318 C275.766,101.318 279.763,97.326 279.763,92.391 L279.763,10.421 C279.763,5.491 275.766,1.494 270.836,1.494 L231.496,1.494 C226.567,1.494 222.57,5.491 222.57,10.421 L222.57,92.39 C222.57,97.325 226.567,101.317 231.496,101.317" id="path29" fill="#C4C4C4" fill-rule="nonzero"></path>
            <path d="M270.836,101.318 C275.766,101.318 279.763,97.326 279.763,92.391 L279.763,10.421 C279.763,5.491 275.766,1.494 270.836,1.494 L231.496,1.494 C226.567,1.494 222.57,5.491 222.57,10.421 L222.57,92.39 C222.57,97.325 226.567,101.317 231.496,101.317 L270.836,101.317 L270.836,101.318 Z" id="path31" stroke="#000000" stroke-width="4.41580009"></path>
            <path d="M253.21,88.045 C253.961,88.045 257.6,85.099 257.6,81.476 L257.6,20.708 C257.6,17.085 253.962,14.14 253.21,14.14 L247.199,14.14 C246.448,14.14 242.809,17.086 242.809,20.708 L242.809,81.476 C242.809,85.099 246.447,88.045 247.199,88.045" id="path33" fill="#000000" fill-rule="nonzero"></path>
            <path d="M253.21,88.045 C253.961,88.045 257.6,85.099 257.6,81.476 L257.6,20.708 C257.6,17.085 253.962,14.14 253.21,14.14 L247.199,14.14 C246.448,14.14 242.809,17.086 242.809,20.708 L242.809,81.476 C242.809,85.099 246.447,88.045 247.199,88.045 L253.21,88.045 Z" id="path35" stroke="#000000" stroke-width="4.41580009"></path>
            <polyline id="polyline37" fill="#000000" fill-rule="nonzero" points="295.37 88.589 295.411 21.052 290.516 15.398 290.516 1.309 320.278 1.316 332.081 14.488 332.081 1.105 357.015 1.105 369.376 14.873 369.376 28.879 364.387 28.879 364.387 115.496 338.188 115.496 327.428 102.361 327.428 115.496 302.722 115.496 290.383 100.524 290.383 88.589"></polyline>
            <polygon id="polygon39" stroke="#000000" stroke-width="7.40369987" points="295.37 88.589 295.411 21.052 290.516 15.398 290.516 1.309 320.278 1.316 332.081 14.488 332.081 1.105 357.015 1.105 369.376 14.873 369.376 28.879 364.387 28.879 364.387 115.496 338.188 115.496 327.428 102.361 327.428 115.496 302.722 115.496 290.383 100.524 290.383 88.589"></polygon>
            <polyline id="polyline41" fill="#C4C4C4" fill-rule="nonzero" points="309.843 43.871 309.843 88.621 315.095 88.621 315.095 101.217 290.383 101.217 290.383 88.621 295.37 88.621 295.37 15.398 290.516 15.398 290.516 1.337 320.298 1.337 337.623 59.751 337.623 15.139 332.106 15.139 332.106 1.071 357.042 1.071 357.042 15.139 352.054 15.139 352.054 101.217 325.851 101.217"></polyline>
            <polygon id="polygon43" stroke="#000000" stroke-width="4.41580009" points="309.843 43.871 309.843 88.621 315.095 88.621 315.095 101.217 290.383 101.217 290.383 88.621 295.37 88.621 295.37 15.398 290.516 15.398 290.516 1.337 320.298 1.337 337.623 59.751 337.623 15.139 332.106 15.139 332.106 1.071 357.042 1.071 357.042 15.139 352.054 15.139 352.054 101.217 325.851 101.217"></polygon>
            <path d="M656.84003,93.167999 L656.84003,17.804001" id="line45" stroke="#000000" stroke-width="15.0733995"></path>
            <path d="M372.358,93.167999 L372.358,17.804001" id="line47" stroke="#000000" stroke-width="15.0733995"></path>
            <path d="M449.34399,89.932999 L449.34399,15.381001" id="line49" stroke="#000000" stroke-width="0.80909997"></path>
            <path d="M368.681,1.543 L422.972,1.543 C425.596,1.543 427.949,2.669 429.587,4.471 L441.967,18.301 C443.4,19.887 444.278,21.992 444.278,24.292 L444.278,57.624 C444.278,62.548 440.28,66.548 435.351,66.548 C440.28,66.548 444.278,70.54 444.278,75.48 L444.278,106.955 C444.278,111.884 440.28,115.881 435.351,115.881 L381.29,115.881 L368.957,101.449 L368.957,88.854 L375.255,88.854 L375.245,23.284 L368.696,15.631" id="path51" fill="#000000" fill-rule="nonzero"></path>
            <path d="M368.681,1.543 L422.972,1.543 C425.596,1.543 427.949,2.669 429.587,4.471 L441.967,18.301 C443.4,19.887 444.278,21.992 444.278,24.292 L444.278,57.624 C444.278,62.548 440.28,66.548 435.351,66.548 C440.28,66.548 444.278,70.54 444.278,75.48 L444.278,106.955 C444.278,111.884 440.28,115.881 435.351,115.881 L381.29,115.881 L368.957,101.449 L368.957,88.854 L375.255,88.854 L375.245,23.284 L368.696,15.631 L368.681,1.543 Z" id="path53" stroke="#000000" stroke-width="7.40369987"></path>
            <path d="M431.94,43.282 L431.945,10.496 C431.945,5.562 427.943,1.57 423.013,1.57 L368.697,1.57 L368.697,15.63 L375.256,15.63 L375.256,88.854 L368.958,88.854 L368.958,101.45 L423.013,101.45 C427.943,101.45 431.945,97.453 431.945,92.524 L431.94,60.727" id="path55" fill="#C4C4C4" fill-rule="nonzero"></path>
            <path d="M431.94,43.282 L431.945,10.496 C431.945,5.562 427.943,1.57 423.013,1.57 L368.697,1.57 L368.697,15.63 L375.256,15.63 L375.256,88.854 L368.958,88.854 L368.958,101.45 L423.013,101.45 C427.943,101.45 431.945,97.453 431.945,92.524 L431.94,60.727 L431.94,43.282 L431.94,43.282 Z" id="path57" stroke="#000000" stroke-width="4.41580009"></path>
            <path d="M430.597,62.094 C430.597,56.532 427.044,52.016 421.473,52.016 C427.043,52.016 430.597,47.499 430.597,41.93" id="path59" fill="#000000" fill-rule="nonzero"></path>
            <polyline id="polyline61" fill="#000000" fill-rule="nonzero" points="480.831 1.337 493.264 15.108 493.264 29.803 487.225 29.803 487.263 67.07 502.45 67.07 514.782 81.501 514.782 88.055 510.072 90.477 510.072 115.881 459.409 115.881 447.077 101.449 447.077 88.854 453.005 88.838 453.005 22.39 447.198 15.62 447.198 1.337"></polyline>
            <polygon id="polygon63" stroke="#000000" stroke-width="7.40369987" points="480.831 1.337 493.264 15.108 493.264 29.803 487.225 29.803 487.263 67.07 502.45 67.07 514.782 81.501 514.782 88.055 510.072 90.477 510.072 115.881 459.409 115.881 447.077 101.449 447.077 88.854 453.005 88.838 453.005 22.39 447.198 15.62 447.198 1.337"></polygon>
            <polyline id="polyline65" fill="#C4C4C4" fill-rule="nonzero" points="447.203 1.304 447.203 15.63 452.982 15.63 452.982 88.854 447.077 88.854 447.077 101.449 502.45 101.449 502.45 67.07 486.966 67.07 486.966 86.754 474.893 86.754 474.893 15.372 480.932 15.372 480.932 1.304"></polyline>
            <polygon id="polygon67" stroke="#000000" stroke-width="4.41580009" points="447.203 1.304 447.203 15.63 452.982 15.63 452.982 88.854 447.077 88.854 447.077 101.449 502.45 101.449 502.45 67.07 486.966 67.07 486.966 86.754 474.893 86.754 474.893 15.372 480.932 15.372 480.932 1.304"></polygon>
            <path d="M396.948,44.759 L407.938,44.759 C408.687,44.759 412.385,41.818 412.385,38.19 L412.385,22.194 C412.385,18.566 408.687,15.625 407.938,15.625 L396.948,15.63" id="path69" fill="#000000" fill-rule="nonzero"></path>
            <path d="M396.948,44.759 L407.938,44.759 C408.687,44.759 412.385,41.818 412.385,38.19 L412.385,22.194 C412.385,18.566 408.687,15.625 407.938,15.625 L396.948,15.63 L396.948,44.759 Z" id="path71" stroke="#000000" stroke-width="4.41580009"></path>
            <path d="M412.385,65.369 C412.385,61.745 408.687,58.805 407.938,58.805 L396.948,58.81 L396.948,88.98 L407.938,88.98 C408.687,88.98 412.385,86.044 412.385,82.419" id="path73" fill="#000000" fill-rule="nonzero"></path>
            <path d="M412.385,65.369 C412.385,61.745 408.687,58.805 407.938,58.805 L396.948,58.81 L396.948,88.98 L407.938,88.98 C408.687,88.98 412.385,86.044 412.385,82.419 L412.385,65.369 Z" id="path75" stroke="#000000" stroke-width="4.41580009"></path>
            <polyline id="polyline77" fill="#000000" fill-rule="nonzero" points="44.79 114.709 44.79 109.24 49.779 114.709 80.646 114.709 80.646 102.683 76.277 102.683 62.106 14.503 49.779 0.702 20.127 0.702 7 87.717 0.702 87.717 0.702 100.444 13.04 114.709"></polyline>
            <g id="g79" stroke-width="7.40369987" stroke="#000000">
                <polygon id="polygon81" points="44.79 114.709 44.79 109.24 49.779 114.709 80.646 114.709 80.646 102.683 76.277 102.683 62.106 14.503 49.779 0.702 20.127 0.702 7 87.717 0.702 87.717 0.702 100.444 13.04 114.709"></polygon>
            </g>
            <polyline id="polyline83" fill="#C4C4C4" fill-rule="nonzero" points="37.447 100.582 37.447 87.461 43.486 87.461 40.857 68.826 29.308 68.826 26.159 87.717 32.458 87.717 32.458 100.541 0.702 100.582 0.702 87.717 7 87.717 20.127 0.702 49.779 0.702 63.95 88.238 69.197 88.238 69.197 100.582"></polyline>
            <polygon id="polygon85" stroke="#000000" stroke-width="4.41580009" points="37.447 87.461 43.486 87.461 40.857 68.826 29.308 68.826 26.159 87.717 32.458 87.717 32.458 100.541 0.702 100.582 0.702 87.717 7 87.717 20.127 0.702 49.779 0.702 63.95 88.238 69.197 88.238 69.197 100.582 37.447 100.582"></polygon>
            <polyline id="polyline87" fill="#000000" fill-rule="nonzero" points="30.358 56.23 39.016 56.23 34.559 31.56"></polyline>
            <polygon id="polygon89" stroke="#000000" stroke-width="4.41580009" points="30.358 56.23 39.016 56.23 34.559 31.56"></polygon>
            <polyline id="polyline91" fill="#000000" fill-rule="nonzero" points="550.226 115.84 550.226 110.37 555.211 115.84 584.076 115.84 584.076 103.809 581.723 103.809 567.544 15.63 555.211 1.833 525.561 1.833 512.445 88.854 506.142 88.854 506.142 101.578 508.104 103.846 511.838 105.728 520.589 115.84"></polyline>
            <polygon id="polygon93" stroke="#000000" stroke-width="7.40369987" points="550.226 115.84 550.226 110.37 555.211 115.84 584.076 115.84 584.076 103.809 581.723 103.809 567.544 15.63 555.211 1.833 525.561 1.833 512.445 88.854 506.142 88.854 506.142 101.578 508.104 103.846 511.838 105.728 520.589 115.84"></polygon>
            <polyline id="polyline95" fill="#C4C4C4" fill-rule="nonzero" points="542.879 101.71 542.879 88.589 548.923 88.589 546.295 69.957 534.748 69.957 531.595 88.854 537.893 88.854 537.893 101.666 506.142 101.71 506.142 88.854 512.445 88.854 525.561 1.833 555.211 1.833 569.385 89.377 574.637 89.377 574.637 101.71"></polyline>
            <polygon id="polygon97" stroke="#000000" stroke-width="4.41580009" points="542.879 101.71 542.879 88.589 548.923 88.589 546.295 69.957 534.748 69.957 531.595 88.854 537.893 88.854 537.893 101.666 506.142 101.71 506.142 88.854 512.445 88.854 525.561 1.833 555.211 1.833 569.385 89.377 574.637 89.377 574.637 101.71"></polygon>
            <polyline id="polyline99" fill="#000000" fill-rule="nonzero" points="535.798 57.356 544.457 57.356 539.992 32.691"></polyline>
            <polygon id="polygon101" stroke="#000000" stroke-width="4.41580009" points="535.798 57.356 544.457 57.356 539.992 32.691"></polygon>
            <polyline id="polyline103" fill="#000000" fill-rule="nonzero" points="711.711 1.543 656.251 1.543 656.251 1.611 656.242 15.63 661.784 22.108 661.747 88.854 657.289 88.854 657.289 101.449 669.622 115.881 724.075 115.881 724.075 84.654 711.711 70.319 711.61 70.319 711.61 59.196 699.203 44.759 694.812 44.759 694.788 35.99 707.412 50.799 724.075 50.799 724.075 15.372"></polyline>
            <polygon id="polygon105" stroke="#000000" stroke-width="7.40369987" points="711.711 1.543 656.251 1.543 656.251 1.611 656.242 15.63 661.784 22.108 661.747 88.854 657.289 88.854 657.289 101.449 669.622 115.881 724.075 115.881 724.075 84.654 711.711 70.319 711.61 70.319 711.61 59.196 699.203 44.759 694.812 44.759 694.788 35.99 707.412 50.799 724.075 50.799 724.075 15.372"></polygon>
            <polyline id="polyline107" fill="#C4C4C4" fill-rule="nonzero" points="711.743 101.449 711.743 70.218 695.074 70.218 695.074 88.854 682.476 88.854 682.476 59.726 699.272 59.726 699.272 44.759 682.476 44.759 682.476 15.63 695.074 15.63 695.074 36.362 711.743 36.362 711.743 1.57 656.242 1.57 656.242 15.63 661.747 15.63 661.747 88.854 657.289 88.854 657.289 101.449"></polyline>
            <polygon id="polygon109" stroke="#000000" stroke-width="4.41580009" points="711.743 101.449 711.743 70.218 695.074 70.218 695.074 88.854 682.476 88.854 682.476 59.726 699.272 59.726 699.272 44.759 682.476 44.759 682.476 15.63 695.074 15.63 695.074 36.362 711.743 36.362 711.743 1.57 656.242 1.57 656.242 15.63 661.747 15.63 661.747 88.854 657.289 88.854 657.289 101.449"></polygon>
            <path d="M580.91,1.543 L632.011,1.543 C634.487,1.543 636.733,2.553 638.352,4.175 L650.751,18.006 C652.355,19.619 653.349,21.845 653.349,24.293 L653.349,106.955 C653.349,111.884 649.352,115.881 644.423,115.881 L594.642,115.881 L587.281,107.272 L583.612,105.828 L579.868,101.449 L579.868,88.854 L586.166,88.854 L586.156,21.835 L580.921,15.63" id="path111" fill="#000000" fill-rule="nonzero"></path>
            <path d="M580.91,1.543 L632.011,1.543 C634.487,1.543 636.733,2.553 638.352,4.175 L650.751,18.006 C652.355,19.619 653.349,21.845 653.349,24.293 L653.349,106.955 C653.349,111.884 649.352,115.881 644.423,115.881 L594.642,115.881 L587.281,107.272 L583.612,105.828 L579.868,101.449 L579.868,88.854 L586.166,88.854 L586.156,21.835 L580.921,15.63 L580.91,1.543 Z" id="path113" stroke="#000000" stroke-width="7.40369987"></path>
            <path d="M641.016,10.496 C641.016,5.562 637.019,1.57 632.089,1.57 L580.919,1.57 L580.919,15.63 L586.164,15.63 L586.164,88.854 L579.866,88.854 L579.866,101.45 L632.089,101.45 C637.019,101.45 641.016,97.453 641.016,92.524" id="path115" fill="#C4C4C4" fill-rule="nonzero"></path>
            <path d="M641.016,10.496 C641.016,5.562 637.019,1.57 632.089,1.57 L580.919,1.57 L580.919,15.63 L586.164,15.63 L586.164,88.854 L579.866,88.854 L579.866,101.45 L632.089,101.45 C637.019,101.45 641.016,97.453 641.016,92.524 L641.016,10.496 Z" id="path117" stroke="#000000" stroke-width="4.41580009"></path>
            <path d="M606.894,88.854 L615.74,88.854 C616.349,88.854 620.023,85.913 620.023,82.285 L620.023,22.195 C620.023,18.567 616.349,15.626 615.74,15.626 L606.894,15.631" id="path119" fill="#000000" fill-rule="nonzero"></path>
            <path d="M606.894,88.854 L615.74,88.854 C616.349,88.854 620.023,85.913 620.023,82.285 L620.023,22.195 C620.023,18.567 616.349,15.626 615.74,15.626 L606.894,15.631 L606.894,88.854 Z" id="path121" stroke="#000000" stroke-width="4.41580009"></path>
            <polyline id="polyline123" fill="#000000" fill-rule="nonzero" points="719.377 1.543 719.348 36.362 731.684 50.799 742.997 50.771 742.997 50.74 742.969 88.854 735.877 88.854 735.877 101.449 748.21 115.881 783.907 115.881 783.907 103.285 776.082 94.136 776.035 94.136 776.011 39.1 786 50.799 800.702 50.799 800.702 15.372 788.372 1.543"></polyline>
            <g id="g125" transform="translate(719.000000, 1.000000)" stroke-width="7.40369987" stroke="#000000">
                <polygon id="polygon127" points="0.377 0.543 0.348 35.362 12.684 49.799 23.997 49.771 23.997 49.74 23.969 87.854 16.877 87.854 16.877 100.449 29.21 114.881 64.907 114.881 64.907 102.285 57.082 93.136 57.035 93.136 57.011 38.1 67 49.799 81.702 49.799 81.702 14.372 69.372 0.543"></polygon>
            </g>
            <polyline id="polyline129" fill="#C4C4C4" fill-rule="nonzero" points="788.372 1.57 788.372 36.362 773.669 36.362 773.669 15.63 763.696 15.63 763.696 88.854 771.57 88.854 771.57 101.449 735.877 101.449 735.877 88.854 742.969 88.854 742.969 15.63 733.399 15.63 733.399 36.362 719.348 36.362 719.348 1.57"></polyline>
            <polygon id="polygon131" stroke="#000000" stroke-width="4.41580009" points="788.372 1.57 788.372 36.362 773.669 36.362 773.669 15.63 763.696 15.63 763.696 88.854 771.57 88.854 771.57 101.449 735.877 101.449 735.877 88.854 742.969 88.854 742.969 15.63 733.399 15.63 733.399 36.362 719.348 36.362 719.348 1.57"></polygon>
        </g>
    </g>
</svg>