<?xml version="1.0" encoding="UTF-8"?>
<svg width="340px" height="49px" viewBox="0 0 340 49" version="1.1" xmlns="http://www.w3.org/2000/svg" xmlns:xlink="http://www.w3.org/1999/xlink">
    <!-- Generator: Sketch 46.2 (44496) - http://www.bohemiancoding.com/sketch -->
    <title>coches</title>
    <desc>Created with Sketch.</desc>
    <defs></defs>
    <g id="Page-1" stroke="none" stroke-width="1" fill="none" fill-rule="evenodd">
        <g id="coches" fill-rule="nonzero">
            <path d="M288.1,29.7 C288.5,28.1 288.8,26.6 288.8,24.9 C288.8,21.9 286.9,19.4 282.9,19.4 C279.5,19.4 276.7,20.9 274,23 L274.8,19.9 L265.3,19.9 L259.2,46.6 L267.9,46.6 L272.3,29.5 C272.9,27.1 273.2,26.3 274.2,25.4 C275.2,24.5 276.4,23.9 277.5,23.9 C279.3,23.9 279.9,25.2 279.9,26.3 C279.9,27.3 279.4,29.1 279,30.4 L274.8,46.6 L284,46.5 L288.1,29.7 L288.1,29.7 Z M301,30.3 C302,27.1 303.4,23.2 307.4,23.2 C309.7,23.2 311,24.7 311,26.9 C311,28.2 310.6,29.7 310.5,30.2 L301,30.2 L301,30.3 Z M308.8,38.2 C308.3,39.8 307.3,43.2 303.1,43.2 C300.8,43.2 299.1,41.8 299.1,38.9 C299.1,37.2 299.5,35.6 299.9,34 L318.1,34 C318.6,32.1 319,30.3 319,28.2 C319,20.7 312.7,19.2 307.5,19.2 C298.6,19.2 295.3,23.5 293.5,27.3 C292,30.3 290.9,35 290.9,38.2 C290.9,44.7 295.5,47.2 302.4,47.2 C308.9,47.2 312.3,45 314,43.4 C316.1,41.4 316.7,39.7 317.2,38.2 L308.8,38.2 Z M334.5,23.5 L338.9,23.5 L339.9,19.9 L335.5,19.9 L337.3,13.1 L327.3,14.6 L326.1,19.8 L323.5,19.8 L322.5,23.4 L325.3,23.4 L322.2,37.1 C321.8,38.6 321.5,40 321.5,41.4 C321.5,43.3 322.2,45.3 325.2,46.4 C326.4,46.9 327.7,47 328.9,47 C331.3,47 333,46.6 334.6,46.2 L335.8,41.5 C334.8,41.7 334.1,41.9 333.2,41.9 C332,41.9 330.6,41.4 330.6,39.7 C330.6,39 330.7,38.4 331.2,36.2 L334.5,23.5 L334.5,23.5 Z" id="Shape" fill="#000100"></path>
            <path d="M256.9,38.6 C255.5,43.9 250.1,48.2 244.8,48.2 C239.5,48.2 236.3,43.9 237.7,38.6 C239.1,33.3 244.5,28.9 249.8,28.9 C255.1,28.9 258.3,33.2 256.9,38.6" id="Shape" fill="#575757"></path>
            <path d="M22.1,35.6 C21.9,36.5 21.7,37.4 21.2,38.4 C19.9,40.9 18.2,41.5 17.2,41.5 C16.9,41.5 14.5,41.5 14.5,37.9 C14.5,34.8 16.7,25.9 18.5,22.2 C20.2,18.8 21.9,18.5 22.7,18.5 C23,18.5 25.3,18.5 25.3,21.8 C25.3,22.6 25.2,23.3 25,24.4 L39.7,24.4 C39.8,23.7 39.8,23.3 39.8,22.9 C39.8,12.9 28.4,12.3 23.1,12.3 C16.5,12.3 8.5,13.6 4,20.9 C1.6,24.8 0,32 0,35.9 C0,46.6 9.4,47.9 17.2,47.9 C19.5,47.9 28,47.9 33.4,42.1 C35.8,39.6 36.6,36.9 37.1,35.5 L22.1,35.5 L22.1,35.6 Z M64.2,28.9 C63.4,32.4 62.5,35.5 61.3,38.2 C60.9,39 59.8,41.4 57.6,41.4 C56.7,41.4 55.9,40.9 55.4,40.3 C55.1,39.8 54.9,39.2 54.9,37.9 C54.9,35.6 56,30.6 56.6,28.1 C58.1,21.8 59.8,18.8 62.5,18.8 C65.2,18.8 65.2,21.2 65.2,21.9 C65.4,23.3 64.9,26 64.2,28.9 L64.2,28.9 Z M79.2,30.9 C79.7,29 80,27 80,25.1 C80,14.9 72.1,12.3 63.1,12.3 C56.9,12.3 51.9,13.6 48.6,16 C43.2,20 40.2,28.4 40.2,35.4 C40.2,38.7 41.1,42 43.4,44.3 C45.5,46.3 49.5,48 56.4,48 C61.3,48 67.1,47.2 70.7,44.9 C73.1,43.4 74.9,41.1 76.3,38.7 C77.8,36.2 78.6,33.6 79.2,30.9 L79.2,30.9 Z M104.5,35.6 C104.3,36.5 104.1,37.4 103.6,38.4 C102.3,40.9 100.6,41.5 99.6,41.5 C99.3,41.5 96.9,41.5 96.9,37.9 C96.9,34.8 99.1,25.9 100.9,22.2 C102.6,18.8 104.3,18.5 105.1,18.5 C105.4,18.5 107.7,18.5 107.7,21.8 C107.7,22.6 107.6,23.3 107.4,24.4 L122.1,24.4 C122.2,23.7 122.2,23.3 122.2,22.9 C122.2,12.9 110.8,12.3 105.5,12.3 C98.9,12.3 90.9,13.6 86.4,20.9 C84,24.8 82.4,32 82.4,36 C82.4,46.7 91.8,48 99.6,48 C101.9,48 110.4,48 115.8,42.2 C118.2,39.7 119,37 119.5,35.6 L104.5,35.6 L104.5,35.6 Z M162.7,25 L157.5,46.5 L142,46.5 L147.1,25.7 C147.5,24.3 147.9,22.8 147.9,21.7 C147.9,20.4 147.4,19.6 146.1,19.6 C143.3,19.6 142.5,22.5 141.7,25.5 L136.3,46.5 L121.2,46.4 L131.9,0 L147.5,0 L143.5,16.6 C146.3,14.6 150.2,12.2 155.5,12.2 C160.8,12.2 163.6,15.3 163.6,19.5 C163.7,21.5 163.1,23.5 162.7,25 L162.7,25 Z M182.1,26 C183,22.5 184.1,18.7 188,18.7 C189.8,18.7 191,19.6 191,21.8 C191,23.3 190.6,24.7 190.2,26 L182.1,26 Z M188.1,35.7 C187.5,38.2 186.6,41.5 182.5,41.5 C180.4,41.5 179.3,40.3 179.3,38.1 C179.3,36.1 179.8,34.1 180.4,31.6 L203.9,31.6 C204.2,30.5 205.1,27.4 205.1,24.2 C205.1,14.9 197.6,12.3 187.9,12.3 C175.9,12.3 171.3,16.7 168.6,21.9 C166.6,25.7 165,32.5 165,36.5 C165,38.1 165.1,42.4 169,45.2 C170.7,46.5 173,47.1 175.2,47.6 C177.2,47.9 179.2,48.1 181.1,48.1 C188,48.1 194.3,46.6 198.5,43.1 C201.9,40.3 202.6,37.6 203.1,35.9 L188.1,35.9 L188.1,35.7 Z M222.8,35.4 L218.6,33.9 C215.5,32.7 210.9,30.8 210.9,24.8 C210.9,21.2 212.9,17 217.9,14.6 C221.4,12.9 225.4,12.4 229.3,12.4 C238.8,12.4 245.4,14.3 245.4,20.4 C245.4,21.1 245.3,21.7 245.2,22.3 L232.2,22 C232.2,21.7 232.3,21.3 232.3,20.9 C232.3,18.9 231,18.3 229.1,18.3 C227.1,18.3 225.6,19.2 225.6,20.7 C225.6,22.7 227.9,23.4 231,24.3 L235.1,25.6 C236.2,26 237.8,26.6 239.2,27.6 C236.3,30.1 234.2,33.3 233.2,36.9 C232.3,40.3 232.7,43.6 233.9,46.3 C230.4,47.7 226.2,48 223.3,48 C222.2,48 218.9,48 215.3,47.4 C208.8,46.5 206.2,44 206.2,39.8 C206.2,38.9 206.3,38.1 206.5,37.2 L220.3,37.5 C220.2,37.8 220.2,38.2 220.2,38.6 C220.2,41.6 222.8,41.8 223.9,41.8 C226.5,41.8 227.7,40.3 227.7,39 C227.6,37 225.9,36.4 222.8,35.4 L222.8,35.4 Z" id="Shape" fill="#000100"></path>
        </g>
    </g>
</svg>