<svg id="Layer_1" data-name="Layer 1" xmlns="http://www.w3.org/2000/svg" viewBox="0 0 411.69 48.85"><defs><style>.cls-1{fill:#231f20;}</style></defs><title>nt2</title><path class="cls-1" d="M23,141.34a53.89,53.89,0,0,0-5.89-.23,53.94,53.94,0,0,0-5.89.23c-4.3.48-7.85,2.19-7.85,8.63v12.57c0,6.44,3.55,8.15,7.85,8.63a54.43,54.43,0,0,0,5.89.23,54.37,54.37,0,0,0,5.89-.23c4.3-.48,7.85-2.19,7.85-8.63V150c0-6.44-3.55-8.15-7.85-8.63m3.16,21.94a3,3,0,0,1-2.83,3.15,61.38,61.38,0,0,1-6.22.29,61.46,61.46,0,0,1-6.22-.29,3,3,0,0,1-2.83-3.15c0-3.58-.06-5.65-.06-7H8c0-1.37,0-3.43.06-7a3,3,0,0,1,2.83-3.15,60.85,60.85,0,0,1,6.22-.29,60.77,60.77,0,0,1,6.22.29,3,3,0,0,1,2.83,3.15c0,3.58.06,5.64.06,7s0,3.44-.06,7" transform="translate(91.38 -131.44)"/><rect class="cls-1" x="263.07" y="9.97" width="4.69" height="29.75"/><rect class="cls-1" x="340.19" y="9.97" width="4.69" height="29.75"/><polygon class="cls-1" points="232.53 9.95 232.53 14.42 243.71 14.42 243.71 39.72 248.4 39.72 248.4 14.42 259.58 14.42 259.58 9.95 232.53 9.95"/><path class="cls-1" d="M65,171.16l-5.88-8.95c3.13-.88,5.42-3,5.42-8.18V150c0-6.44-3.55-8.15-7.85-8.63a54.4,54.4,0,0,0-5.89-.22,54.45,54.45,0,0,0-5.89.22c-4.3.48-7.85,2.19-7.85,8.63v21.18h4.69V162.9h9c1,0,2.08,0,3.13,0l5.45,8.3Zm-23.24-13c0-1,0-5.38,0-9a3,3,0,0,1,2.83-3.15,61.75,61.75,0,0,1,6.22-.29,61.7,61.7,0,0,1,6.22.29,3,3,0,0,1,2.83,3.15c0,3,0,3,0,5.52A3,3,0,0,1,57,157.92a61.42,61.42,0,0,1-6.22.29Z" transform="translate(91.38 -131.44)"/><path class="cls-1" d="M74.59,149.86c0-2.11.63-3.52,2.86-3.77a46.92,46.92,0,0,1,5.59-.29,40.81,40.81,0,0,1,5.29.29,2.86,2.86,0,0,1,2.77,2.5h4.68c-.48-5.31-3.81-6.8-7.79-7.25a38.59,38.59,0,0,0-5-.23,43.32,43.32,0,0,0-5.26.23c-4.3.48-7.85,2.26-7.85,8.52s3.55,8,7.85,8.52a43.42,43.42,0,0,0,5.29.23h.18a61.69,61.69,0,0,1,6.22.29c2.23.25,2.86,1.61,2.86,3.77s-.63,3.64-2.86,3.89a67.74,67.74,0,0,1-12.44,0,2.86,2.86,0,0,1-2.77-2.49H69.57c.49,5.3,3.81,6.79,7.78,7.23a53.7,53.7,0,0,0,5.89.23,53.68,53.68,0,0,0,5.89-.23c4.3-.48,7.85-2.41,7.85-8.63s-3.55-8-7.85-8.52a57.29,57.29,0,0,0-6.07-.23,47.58,47.58,0,0,1-5.62-.29c-2.23-.25-2.86-1.66-2.86-3.77" transform="translate(91.38 -131.44)"/><rect class="cls-1" x="263.07" y="9.97" width="4.69" height="29.75"/><rect class="cls-1" x="340.19" y="9.97" width="4.69" height="29.75"/><path class="cls-1" d="M-7.54,141.41v23.72a.14.14,0,0,1-.14.14.13.13,0,0,1-.11-.06l-15.31-23.27a1.22,1.22,0,0,0-1-.53h-4.79a1.23,1.23,0,0,0-1.23,1.23v28.51h4.69V147.38a.14.14,0,0,1,.14-.14.14.14,0,0,1,.12.06l15.34,23.32a1.22,1.22,0,0,0,1,.53h4.75a1.23,1.23,0,0,0,1.23-1.23V141.41Z" transform="translate(91.38 -131.44)"/><path class="cls-1" d="M282.51,141.41v23.72a.14.14,0,0,1-.14.14.13.13,0,0,1-.11-.06l-15.31-23.27a1.23,1.23,0,0,0-1-.53h-4.79a1.23,1.23,0,0,0-1.23,1.23v28.51h4.69V147.38a.14.14,0,0,1,.14-.14.14.14,0,0,1,.12.06l15.34,23.32a1.22,1.22,0,0,0,1,.53H286a1.23,1.23,0,0,0,1.23-1.23V141.41Z" transform="translate(91.38 -131.44)"/><path class="cls-1" d="M319.08,154.75H306.52v4.69h8.89a.25.25,0,0,1,.25.25h0c0,1,0,2.18,0,3.6a3,3,0,0,1-2.83,3.15,67.73,67.73,0,0,1-12.44,0,3,3,0,0,1-2.83-3.15c0-3.58-.06-5.65-.06-7s0-3.43.06-7a3,3,0,0,1,2.83-3.15,67.73,67.73,0,0,1,12.44,0,2.86,2.86,0,0,1,2.77,2.5h4.68c-.48-5.31-3.81-6.81-7.79-7.25a76.65,76.65,0,0,0-11.78,0c-4.3.48-7.85,2.19-7.85,8.63v12.57c0,6.44,3.55,8.15,7.85,8.63a77.33,77.33,0,0,0,11.78,0c4.3-.48,7.85-2.19,7.85-8.63V156a1.23,1.23,0,0,0-1.23-1.23" transform="translate(91.38 -131.44)"/><path class="cls-1" d="M202.66,141.34a76.65,76.65,0,0,0-11.78,0c-4.3.48-7.85,2.19-7.85,8.63v21.18h4.69V162.9h9.05a54.36,54.36,0,0,0,5.89-.23c4.3-.48,7.85-2.19,7.85-8.63V150c0-6.44-3.55-8.15-7.85-8.63m3.16,13.42a3,3,0,0,1-2.83,3.15,61.34,61.34,0,0,1-6.22.29h-9.05c0-1,0-5.38,0-9a3,3,0,0,1,2.83-3.15,67.73,67.73,0,0,1,12.44,0,3,3,0,0,1,2.83,3.15c0,3,0,3,0,5.52" transform="translate(91.38 -131.44)"/><path class="cls-1" d="M235.31,141.34a76.65,76.65,0,0,0-11.78,0c-4.3.48-7.85,2.19-7.85,8.63v21.18h4.69V162.9h9a54.44,54.44,0,0,0,5.89-.23c4.3-.48,7.85-2.19,7.85-8.63V150c0-6.44-3.55-8.15-7.85-8.63m3.16,13.42a3,3,0,0,1-2.83,3.15,61.42,61.42,0,0,1-6.22.29h-9c0-1,0-5.38,0-9a3,3,0,0,1,2.83-3.15,67.73,67.73,0,0,1,12.44,0,3,3,0,0,1,2.83,3.15c0,3,0,3,0,5.52" transform="translate(91.38 -131.44)"/><path class="cls-1" d="M121.57,158.57a20.07,20.07,0,0,0-4-3l.61-.54c1.59-1.47,3.21-3.31,5.27-5.64s4.27-4.82,7.3-8h-6.45c-3.85,4.17-6.39,7.25-8.38,9.26a13.49,13.49,0,0,1-3.21,2.58,6.32,6.32,0,0,1-3.08.69h-2.31V141.41h-4.69v29.75h4.69V158.64h3.85a8.11,8.11,0,0,1,3.61.73,11.62,11.62,0,0,1,2.55,1.72c2.27,1.91,5.09,5.25,9.58,10.06h6.46c-5.54-5.72-8.86-9.76-11.85-12.59" transform="translate(91.38 -131.44)"/><path class="cls-1" d="M-44.27,133.42a3.09,3.09,0,0,0-1.93-1,186.11,186.11,0,0,0-21.24-.94,186.08,186.08,0,0,0-21.24.94,3.08,3.08,0,0,0-1.92,1,3.08,3.08,0,0,0-.78,2v41.9a2.93,2.93,0,0,0,.86,2.07,2.93,2.93,0,0,0,2.07.86h42a2.94,2.94,0,0,0,2.07-.86,2.93,2.93,0,0,0,.86-2.07v-41.9a3.1,3.1,0,0,0-.78-2m-.87,43.94a1.28,1.28,0,0,1-1.27,1.27h-42a1.28,1.28,0,0,1-1.27-1.27v-41.9A1.49,1.49,0,0,1-88.46,134a184.78,184.78,0,0,1,21-.93,184.79,184.79,0,0,1,21,.93,1.49,1.49,0,0,1,1.26,1.43Z" transform="translate(91.38 -131.44)"/><path class="cls-1" d="M-50.23,165.24l-8.12-8.12h-8.26v8.24l8.13,8.13a1.4,1.4,0,0,0,1,.4,1.4,1.4,0,0,0,.85-.28,33.75,33.75,0,0,0,3.46-3.07,34.49,34.49,0,0,0,3.07-3.46,1.39,1.39,0,0,0,.28-.84,1.42,1.42,0,0,0-.4-1" transform="translate(91.38 -131.44)"/><path class="cls-1" d="M-68.26,157.12h-8.26l-8.12,8.12a1.42,1.42,0,0,0-.4,1,1.4,1.4,0,0,0,.28.84,33.55,33.55,0,0,0,3.07,3.46,33.67,33.67,0,0,0,3.46,3.07,1.39,1.39,0,0,0,.84.28,1.41,1.41,0,0,0,1-.4l8.13-8.13Z" transform="translate(91.38 -131.44)"/><path class="cls-1" d="M-68.26,155.47v-8.26l-8.13-8.13a1.41,1.41,0,0,0-1-.4,1.39,1.39,0,0,0-.84.28A34.44,34.44,0,0,0-81.69,142a33.75,33.75,0,0,0-3.07,3.46,1.41,1.41,0,0,0-.28.84,1.42,1.42,0,0,0,.4,1l8.14,8.14Z" transform="translate(91.38 -131.44)"/><path class="cls-1" d="M-50.1,145.49A33.91,33.91,0,0,0-53.18,142,33.67,33.67,0,0,0-56.64,139a1.39,1.39,0,0,0-.85-.28,1.42,1.42,0,0,0-1,.4l-8.13,8.13v8.26h8.24l8.14-8.14a1.42,1.42,0,0,0,.4-1,1.38,1.38,0,0,0-.28-.84" transform="translate(91.38 -131.44)"/></svg>