<?xml version="1.0" encoding="utf-8"?>
<!-- Generator: Adobe Illustrator 16.0.0, SVG Export Plug-In . SVG Version: 6.00 Build 0)  -->
<!DOCTYPE svg PUBLIC "-//W3C//DTD SVG 1.1//EN" "http://www.w3.org/Graphics/SVG/1.1/DTD/svg11.dtd">
<svg version="1.1" id="Layer_1" xmlns="http://www.w3.org/2000/svg" xmlns:xlink="http://www.w3.org/1999/xlink" x="0px" y="0px"
	 width="358.5px" height="37.75px" viewBox="0 0.5 358.5 37.75" enable-background="new 0 0.5 358.5 37.75" xml:space="preserve">
<g>
	<path fill="#1D1D1B" d="M14.958,6.007l0.553,5.354h-0.104c-1.554-2.521-3.8-4.215-6.598-4.215c-2.522,0-4.768,1.348-4.768,3.974
		c0,2.245,2.004,3.04,4.077,3.627l1.589,0.449c2.314,0.657,4.007,1.313,5.182,2.348c1.209,1.072,1.935,2.66,1.935,4.664
		c0,5.562-4.215,8.016-9.327,8.016c-2.66,0-5.286-0.553-7.497-1.383v-5.906h0.104c1.451,2.451,3.938,5.111,7.738,5.111
		c2.937,0,5.147-1.762,5.147-4.422c0-2.383-1.796-3.453-4.25-4.109l-1.9-0.52c-3.04-0.828-6.46-2.244-6.46-6.875
		c0-4.836,3.973-7.15,8.602-7.15C10.882,4.971,13.404,5.385,14.958,6.007z"/>
	<path fill="#1D1D1B" d="M40.209,5.593c-1.278,0.414-1.935,1.14-2.556,2.625L28.36,30.396h-0.138L19.378,8.598
		c-0.656-1.589-1.175-2.557-2.246-3.005V5.489h8.222v0.104c-1.313,0.345-2.073,1.278-1.348,3.074l5.182,13.059l5.424-13.301
		c0.691-1.692,0.104-2.452-0.967-2.832V5.489h6.563V5.593z"/>
	<path fill="#1D1D1B" d="M56.859,10.809c-0.483-1.623-1.555-3.04-3.558-3.04h-5.424v7.738h4.698c1.658,0,2.902-0.863,3.524-1.935
		h0.104v6.011h-0.104c-0.587-1.037-1.866-1.797-3.524-1.797h-4.698v7.221c0,2.279,1.658,2.729,3.938,2.729
		c2.418,0,5.009-0.932,6.218-3.766h0.104l-0.622,5.701H41.693v-0.104c0.829-0.312,1.9-1.312,1.9-2.592V8.184
		c0-1.278-1.071-2.28-1.9-2.591V5.489h15.269v5.32H56.859z"/>
	<path fill="#1D1D1B" d="M83.699,5.593c-0.829,0.311-1.865,1.312-1.865,2.591V30.5H81.73L65.632,11.604l-0.035,15.373
		c0,1.279,0.967,2.211,1.796,2.592v0.104h-6.425v-0.104c0.829-0.381,1.865-1.312,1.865-2.592V9.704c0-2.004-1.244-3.316-2.66-4.11
		V5.489h6.046L79.07,20.586V8.184c0-1.278-1.037-2.28-1.866-2.591V5.489h6.495V5.593z"/>
	<path fill="#1D1D1B" d="M101.419,6.007l0.553,5.354h-0.104c-1.554-2.521-3.8-4.215-6.598-4.215c-2.522,0-4.768,1.348-4.768,3.974
		c0,2.245,2.004,3.04,4.077,3.627l1.589,0.449c2.314,0.657,4.007,1.313,5.182,2.348c1.209,1.072,1.935,2.66,1.935,4.664
		c0,5.562-4.215,8.016-9.327,8.016c-2.66,0-5.286-0.553-7.497-1.383v-5.906h0.104c1.451,2.451,3.938,5.111,7.738,5.111
		c2.937,0,5.147-1.762,5.147-4.422c0-2.383-1.796-3.453-4.25-4.109l-1.9-0.52c-3.04-0.828-6.46-2.244-6.46-6.875
		c0-4.836,3.973-7.15,8.602-7.15C97.343,4.971,99.865,5.385,101.419,6.007z"/>
	<path fill="#1D1D1B" d="M124.252,26.32c1.14,1.59,2.28,2.729,3.42,3.248v0.104h-7.704v-0.104c0.622-0.416,0.587-1.244-0.138-2.246
		l-7.772-10.848v10.502c0,1.279,1.036,2.279,1.865,2.592v0.104h-8.015v-0.104c0.829-0.312,1.865-1.312,1.865-2.592V8.184
		c0-1.278-1.036-2.28-1.865-2.591V5.489h8.015v0.104c-0.829,0.311-1.865,1.312-1.865,2.591v8.152l7.393-7.875
		c1.244-1.313,1.485-2.177,0.207-2.867V5.489h7.255v0.104c-1.209,0.553-2.487,1.45-3.904,2.901l-6.667,6.979L124.252,26.32z"/>
	<path fill="#1D1D1B" d="M148.121,26.562c0.656,1.588,1.348,2.557,2.592,3.006v0.104h-7.601v-0.104
		c0.898-0.416,1.209-1.348,0.656-2.73l-1.451-3.627h-7.877l-1.52,3.801c-0.553,1.416-0.173,2.107,0.725,2.557v0.104h-5.873v-0.104
		c1.071-0.416,1.831-1.451,2.314-2.627l9.051-21.97h0.173L148.121,26.562z M138.379,13.469l-3.005,7.462h6.011L138.379,13.469z"/>
	<path fill="#1D1D1B" d="M168.432,5.489c7.219,0,13.887,3.489,13.887,11.712c0,7.703-5.424,12.471-12.678,12.471h-10.951v-0.104
		c0.829-0.312,1.831-1.312,1.831-2.592V8.184c0-1.278-1.002-2.28-1.831-2.591V5.489H168.432z M177.654,18.064
		c0-6.288-3.453-10.399-9.568-10.399c-1.416,0-2.453,0.104-3.281,0.312v17.341c0,1.727,1.174,2.176,3.66,2.176
		C173.752,27.494,177.654,25.25,177.654,18.064z"/>
	<path fill="#1D1D1B" d="M202.25,26.562c0.656,1.588,1.348,2.557,2.59,3.006v0.104h-7.6v-0.104c0.898-0.416,1.209-1.348,0.656-2.73
		l-1.451-3.627h-7.875l-1.521,3.801c-0.553,1.416-0.172,2.107,0.727,2.557v0.104h-5.873v-0.104c1.07-0.416,1.83-1.451,2.314-2.627
		l9.051-21.97h0.172L202.25,26.562z M192.508,13.469l-3.006,7.462h6.012L192.508,13.469z"/>
	<path fill="#1D1D1B" d="M226.396,6.422v5.665h-0.139c-1.312-3.144-5.217-4.836-8.049-4.836c-5.84,0-9.121,4.56-9.121,10.709
		c0,5.596,3.49,9.879,8.602,9.879c2.867,0,4.768-1.139,4.768-2.348V22.07c0-1.277-1.139-2.279-1.9-2.59v-0.104h7.947v0.104
		c-0.83,0.311-1.764,1.312-1.764,2.59v6.012c-2.867,1.312-5.838,2.211-9.43,2.211c-7.117,0-12.887-5.666-12.887-12.609
		c0-7.704,6.115-12.712,13.682-12.712C220.834,4.971,224.115,5.593,226.396,6.422z"/>
	<path fill="#1D1D1B" d="M249.367,23.385c0,4.041-3.145,6.287-7.256,6.287h-11.434v-0.104c0.828-0.312,1.898-1.312,1.898-2.592
		V8.184c0-1.278-1.07-2.28-1.898-2.591V5.489h9.879c4.457,0,7.566,2.453,7.566,6.149c0,2.626-1.59,4.422-3.801,5.286
		C247.363,17.754,249.367,20.447,249.367,23.385z M239.451,16.025c4.008,0,4.664-2.073,4.664-4.007c0-3.385-2.383-4.456-5.424-4.456
		c-0.691,0-1.484,0.069-1.865,0.138v8.326H239.451z M244.842,23.418c0-2.486-1.211-5.146-4.871-5.146h-3.145v7.047
		c0,2.107,1.244,2.453,3.041,2.453C242.906,27.771,244.842,26.527,244.842,23.418z"/>
	<path fill="#1D1D1B" d="M252.232,29.672v-0.104c0.828-0.312,1.865-1.312,1.865-2.592V8.184c0-1.278-1.037-2.28-1.865-2.591V5.489
		h8.014v0.104c-0.828,0.311-1.865,1.312-1.865,2.591v17.031c0,2.004,0.898,2.453,4.008,2.453c2.832,0,4.594-1.037,5.734-3.627h0.104
		l-0.691,5.631H252.232z"/>
	<path fill="#1D1D1B" d="M289.645,26.562c0.656,1.588,1.348,2.557,2.59,3.006v0.104h-7.6v-0.104c0.898-0.416,1.209-1.348,0.656-2.73
		l-1.451-3.627h-7.877l-1.52,3.801c-0.553,1.416-0.172,2.107,0.727,2.557v0.104h-5.873v-0.104c1.07-0.416,1.83-1.451,2.314-2.627
		l9.051-21.97h0.172L289.645,26.562z M279.902,13.469l-3.006,7.462h6.012L279.902,13.469z"/>
	<path fill="#1D1D1B" d="M303.391,5.489c7.221,0,13.889,3.489,13.889,11.712c0,7.703-5.424,12.471-12.68,12.471H293.65v-0.104
		c0.828-0.312,1.83-1.312,1.83-2.592V8.184c0-1.278-1.002-2.28-1.83-2.591V5.489H303.391z M312.615,18.064
		c0-6.288-3.455-10.399-9.568-10.399c-1.418,0-2.453,0.104-3.283,0.312v17.341c0,1.727,1.176,2.176,3.662,2.176
		C308.711,27.494,312.615,25.25,312.615,18.064z"/>
	<path fill="#1D1D1B" d="M335.102,10.809c-0.482-1.623-1.555-3.04-3.559-3.04h-5.422v7.738h4.697c1.658,0,2.902-0.863,3.523-1.935
		h0.104v6.011h-0.104c-0.588-1.037-1.865-1.797-3.523-1.797h-4.697v7.221c0,2.279,1.658,2.729,3.938,2.729
		c2.418,0,5.01-0.932,6.219-3.766h0.104l-0.623,5.701h-15.822v-0.104c0.83-0.312,1.9-1.312,1.9-2.592V8.184
		c0-1.278-1.07-2.28-1.9-2.591V5.489h15.27v5.32H335.102z"/>
	<path fill="#1D1D1B" d="M358.385,11.328c-0.656-2.245-2.211-3.455-4.422-3.455h-3.352v19.104c0,1.279,1.037,2.279,1.865,2.592
		v0.104h-8.014v-0.104c0.828-0.312,1.865-1.312,1.865-2.592V7.873h-3.283c-2.211,0-3.764,1.21-4.422,3.455h-0.104l0.277-5.839
		h19.414l0.277,5.839H358.385z"/>
</g>
</svg>
