<?xml version="1.0" encoding="UTF-8"?>
<svg width="764px" height="388px" viewBox="0 0 764 388" version="1.1" xmlns="http://www.w3.org/2000/svg" xmlns:xlink="http://www.w3.org/1999/xlink">
    <!-- Generator: Sketch 46.2 (44496) - http://www.bohemiancoding.com/sketch -->
    <title>willhaben</title>
    <desc>Created with Sketch.</desc>
    <defs></defs>
    <g id="Page-1" stroke="none" stroke-width="1" fill="none" fill-rule="evenodd">
        <g id="willhaben" fill-rule="nonzero">
            <path d="M635.7,31 L129.1,31 C74.7,31 30.8,75.7 30.8,131.1 C30.8,186.5 74.7,231.2 129.1,231.2 L635.4,231.2 C689.8,231.2 733.7,186.5 733.7,131.1 C733.7,76 689.8,31 635.7,31 Z" id="Shape" fill-opacity="0" fill="#FFFFFF"></path>
            <path d="M635.7,261.4 L129.1,261.4 C58.2,261.4 0.5,203 0.5,131.1 C0.5,59.2 58.2,0.8 129.1,0.8 L635.4,0.8 C706.3,0.8 764,59.2 764,131.1 C764.2,203 706.5,261.4 635.7,261.4 Z M129.1,61.5 C91.8,61.5 61.3,92.7 61.3,131.4 C61.3,169.8 91.8,201.3 129.1,201.3 L635.4,201.3 C672.7,201.3 703.2,170.1 703.2,131.4 C703.2,93 672.7,61.5 635.4,61.5 L129.1,61.5 Z" id="Shape" fill="#000000"></path>
            <path d="M229.7,367.4 C216,388.2 187.3,393.8 165.7,379.6 L165.7,379.6 C143.9,365.4 137.2,336.9 151,316.1 L211.7,222.9 C225.4,202.1 253.9,196.5 275.7,210.7 L275.7,210.7 C297.5,224.9 320.9,229.2 307.5,250.1 L229.7,367.4 Z" id="Shape" fill="#000000"></path>
            <g id="Group" transform="translate(125.000000, 99.000000)" fill="#000000">
                <path d="M70.4,62.3 L49.8,62.3 L44.7,39.2 C43.7,34.6 42.9,29.3 42.4,23.4 L42.4,23.4 C42.1,28.7 41.1,33.6 40.1,38.4 L34.8,62.3 L15.5,62.3 L0.8,0.6 L18.8,0.6 L24.4,25.8 C25.4,29.6 25.9,34.7 26.4,39.3 L26.4,39.3 C26.9,34.7 27.7,30.4 28.7,26.1 L35.3,0.7 L52.3,0.7 L58.4,25.3 C59.4,28.9 60.4,33.7 60.9,38.8 L60.9,38.8 C61.7,33.5 62.4,28.6 63.4,24.6 L68.5,0.7 L85.5,0.7 L70.4,62.3 Z" id="Shape"></path>
                <path d="M96.1,62.3 L96.1,0.6 L113.1,0.6 L113.1,62.3 C113.1,62.3 96.1,62.3 96.1,62.3 Z" id="Shape"></path>
                <polygon id="Shape" points="128.3 62.3 128.3 0.6 145.3 0.6 145.3 47.3 162.3 47.3 162.3 62.5 128.3 62.5"></polygon>
                <polygon id="Shape" points="174.3 62.3 174.3 0.6 191.3 0.6 191.3 47.3 208.3 47.3 208.3 62.5 174.3 62.5"></polygon>
                <path d="M255.6,62.3 L255.6,37.9 L237.1,37.9 L237.1,62.3 L220.1,62.3 L220.1,0.6 L237.1,0.6 L237.1,23.2 L255.6,23.2 L255.6,0.6 L272.6,0.6 L272.6,62.3 C272.6,62.3 255.6,62.3 255.6,62.3 Z" id="Shape"></path>
                <path d="M324.4,62.3 L321.1,52.1 L302,52.1 L299,62.3 L282.2,62.3 L302.3,0.6 L321.9,0.6 L343,62.3 L324.4,62.3 Z M314.5,31.3 C313.5,27.7 312.2,24.4 311.7,20.6 L311.4,20.6 C310.9,24.2 309.6,28.2 308.4,32.3 L306.4,39.2 L317.1,39.2 L314.5,31.3 Z" id="Shape"></path>
                <path d="M374,62.6 C370.2,62.6 363.1,62.3 352.7,62.3 L352.7,0.8 C358.8,0.5 369.7,0.3 377.3,0.3 C390.8,0.3 399.1,5.4 399.1,16.3 C399.1,21.9 395.8,26.7 391.2,29.3 L391.2,29.6 C396.5,31.4 400.1,37 400.1,43.1 C400.1,53.7 391.5,62.6 374,62.6 Z M374.5,14.1 C372.5,14.1 371.2,14.1 369.7,14.4 L369.7,24.6 C370.7,24.6 372,24.6 373.3,24.6 C378.6,24.6 381.2,22.3 381.2,18.8 C381.1,15.6 378.6,14.1 374.5,14.1 Z M374,37.2 C373.2,37.2 370.7,37.2 369.7,37.2 L369.7,48.4 C370.7,48.4 372.7,48.7 374,48.7 C378.6,48.7 381.6,46.7 381.6,42.9 C381.9,39.7 379.3,37.2 374,37.2 Z" id="Shape"></path>
                <polygon id="Shape" points="411.8 62.3 411.8 0.6 447.9 0.6 447.9 15.1 428.8 15.1 428.8 23.7 446.8 23.7 446.8 37.7 428.8 37.7 428.8 47.6 447.9 47.6 447.9 62.3 411.8 62.3"></polygon>
                <path d="M494.7,62.3 L484.3,41.2 C482,36.4 479.7,31.5 478.2,27.2 C478.5,30.8 478.7,33 478.7,36.9 L478.7,62.1 L462.4,62.1 L462.4,0.6 L484.2,0.6 L493.1,18.9 C495.6,24.5 498.4,30.1 500.5,34.9 C500,30.6 499.7,26 499.7,22.2 L499.7,0.6 L516,0.6 L516,62.3 C516,62.3 494.7,62.3 494.7,62.3 Z" id="Shape"></path>
            </g>
        </g>
    </g>
</svg>